<svg width="108" height="106" viewBox="0 0 108 106" fill="none" xmlns="http://www.w3.org/2000/svg">
<path fill-rule="evenodd" clip-rule="evenodd" d="M37.1461 13.0892C47.0399 11.8578 57.8737 10.4225 65.7175 16.487C74.1862 23.0348 78.6186 34.0412 77.9303 44.6223C77.2745 54.7047 70.1684 62.9133 62.2776 69.3702C55.1845 75.1742 46.3676 77.8788 37.1461 77.9948C27.7814 78.1127 18.2764 76.2333 11.364 70.0108C4.16548 63.5306 -0.661144 54.1992 0.073785 44.6223C0.771228 35.5339 7.98243 28.7592 14.9869 22.8013C21.3474 17.3911 28.8075 14.1271 37.1461 13.0892Z" fill="#E28726"/>
<path d="M31.7977 36.1174C31.7977 23.0044 42.4661 12.3351 55.5802 12.3351C68.6937 12.3351 79.3628 23.0044 79.3628 36.1174C79.3628 49.2304 68.6928 59.8997 55.5802 59.8997C42.4672 59.8997 31.7977 49.2304 31.7977 36.1174ZM38.3831 36.1185C38.3831 45.6011 46.0979 53.3156 55.5802 53.3156C65.0639 53.3156 72.7772 45.601 72.7774 36.1185C72.7774 26.6361 65.0628 18.9216 55.5802 18.9216C46.0977 18.9216 38.3831 26.6361 38.3831 36.1185Z" fill="#333333" stroke="#FFF0D7" stroke-width="0.3"/>
<path d="M82.1628 61.2288L82.0814 61.3149L82.1463 61.414C85.9517 67.2282 90.0935 72.7992 94.2735 78.3391C94.8376 79.0866 95.4024 79.8336 95.9671 80.5806C99.5881 85.37 103.208 90.1576 106.637 95.0848L106.76 94.9992L106.637 95.0849C107.195 95.8865 107.202 96.6564 106.902 97.2844C106.599 97.9203 105.973 98.4265 105.239 98.6669L105.212 98.6757L105.19 98.6938C105.185 98.6984 105.18 98.7029 105.175 98.7073C105.164 98.7183 105.155 98.7282 105.15 98.7338L105.143 98.7423C105.142 98.7428 105.142 98.7432 105.142 98.7434C103.439 100.162 99.5085 102.827 95.5286 104.461C93.5371 105.278 91.5452 105.832 89.8196 105.85C88.0977 105.867 86.6592 105.352 85.7349 104.049C84.5604 102.394 83.6055 100.486 82.7034 98.5333C82.4553 97.9966 82.2111 97.456 81.9673 96.9165C81.3266 95.4982 80.6892 94.0875 79.9949 92.7729L79.8622 92.843L79.9949 92.7729C76.1003 85.4005 72.3293 77.939 68.7778 70.3906L68.7185 70.2647L68.5885 70.3143C64.5418 71.8588 60.1562 72.7126 55.5729 72.7126C36.3417 72.7126 19.6685 56.7928 19.1649 37.9575C18.8054 24.5093 24.9148 8.56662 39.3234 3.19316C44.663 1.20216 50.3987 0.15 55.9107 0.15C71.0403 0.15 83.2447 7.8298 88.577 20.6816L88.7155 20.6241L88.577 20.6816C89.6656 23.3049 92.1886 30.0439 92.1886 36.0977C92.1886 45.822 88.3709 54.6669 82.1628 61.2288ZM25.7482 37.7805L25.8982 37.7765L25.7482 37.7806C26.1601 53.1501 39.8197 66.1259 55.574 66.1259C72.133 66.1259 85.6033 52.6537 85.6033 36.0966C85.6033 32.7058 84.4384 27.8883 82.4944 23.2046C78.15 12.734 68.451 6.73515 55.9107 6.73515C51.1731 6.73515 46.2333 7.6441 41.6237 9.36378C30.227 13.6134 25.4528 26.7176 25.7482 37.7805ZM73.4948 68.0072L73.3731 68.0759L73.433 68.2021C75.9388 73.4813 78.5674 78.6985 81.227 83.8978L81.3092 84.0586L81.4522 83.9482C83.6474 82.2529 85.9148 80.6605 88.2775 79.2077L88.4177 79.1215L88.3188 78.9899C84.8679 74.3962 81.4809 69.7615 78.3051 64.9741L78.2154 64.8388L78.0877 64.9389C76.639 66.0728 75.1053 67.0986 73.4948 68.0072ZM89.592 100.329L89.6415 100.428L89.7512 100.41C93.7063 99.7447 97.4241 98.1933 100.626 95.7583L100.742 95.6703L100.657 95.5519C97.7365 91.4516 94.7016 87.4358 91.666 83.424L91.5846 83.3166L91.4691 83.386C88.8 84.9888 86.2654 86.7756 83.8281 88.7044L83.7315 88.7808L83.7878 88.8905C85.7413 92.6952 87.6886 96.5014 89.592 100.329Z" fill="#333333" stroke="#FFF0D7" stroke-width="0.3"/>
</svg>
