<svg width="108" height="115" viewBox="0 0 108 115" fill="none" xmlns="http://www.w3.org/2000/svg">
<path fill-rule="evenodd" clip-rule="evenodd" d="M28.0959 37.0551C33.889 29.7362 41.3802 23.4848 50.7419 22.4319C61.22 21.2534 72.7771 23.4679 80.1884 31.1962C87.5029 38.8238 87.7439 50.2038 87.3657 60.6229C87.0107 70.4022 84.7964 80.0793 78.1586 87.1178C71.336 94.352 61.7527 98.3111 51.6903 98.4511C41.3498 98.5951 29.9965 96.0978 23.5061 87.8785C17.3925 80.1365 20.2922 69.4803 21.1667 59.7971C21.9111 51.5537 23.009 43.482 28.0959 37.0551Z" fill="#E28726"/>
<path d="M92.8686 18.6893C92.9738 17.9833 92.7761 17.2244 92.119 16.5612C88.9098 13.3242 88.4126 10.1404 91.454 6.56948C91.6055 6.39206 91.7237 6.20804 91.8218 6.02083C92.9585 4.53565 92.2833 1.68897 89.7932 1.57965C70.5718 0.73423 47.3351 0.660894 28.1073 0.0277412C27.9962 0.0243249 27.898 0.0404954 27.7921 0.0486945C27.7488 0.0439117 27.7094 0.0313853 27.6632 0.0277412C21.3226 -0.35625 14.669 3.2632 13.9896 10.0965C13.9149 10.8517 13.9386 11.5589 14.019 12.2337C13.8108 12.5997 13.6778 13.0358 13.6842 13.5638C13.9397 38.7384 13.2221 63.8586 13.021 89.0178C12.9961 89.2203 12.9909 89.4353 13.0187 89.671C13.9069 97.3702 18.6804 103.031 26.5119 104.221C26.767 104.261 27.0057 104.257 27.2382 104.235C27.3753 104.269 27.5117 104.304 27.6632 104.317C46.1144 106.005 64.6261 105.88 83.1353 105.872H88.6914C90.2365 106.339 92.2268 105.531 92.2327 103.43C92.2997 75.2433 94.3399 47.0717 92.8989 18.8909C92.8952 18.8171 92.8756 18.757 92.8686 18.6893ZM19.2917 10.3566C19.9417 6.35836 24.1681 5.14125 27.6632 5.35169C27.7853 5.35921 27.8928 5.34463 28.0066 5.33894C28.0408 5.34121 28.072 5.35055 28.1073 5.35169C45.8003 5.93565 67.5001 6.07025 85.1915 6.74235C83.8835 9.70769 83.8293 12.7227 85.0747 15.6163C67.2015 14.8032 45.3254 15.1432 27.4405 15.5577C27.3815 15.5589 27.3341 15.5735 27.2756 15.578C26.9442 15.4231 26.5579 15.3318 26.1081 15.3364C23.092 15.3648 18.6453 14.3308 19.2917 10.3566ZM73.5 20.6708L59.1953 20.4467C63.8317 20.4444 68.962 20.5852 73.5 20.6708ZM28.246 99.0353C28.0517 99.018 27.8563 99.0064 27.6621 98.989C27.6008 98.9834 27.5498 98.9925 27.4892 98.9902C22.4313 98.0801 18.9564 95.0025 18.3417 89.6696C18.336 89.6175 18.318 89.5738 18.3098 89.5239C18.3201 89.4243 18.3404 89.3319 18.3417 89.2267C18.5267 65.8232 19.153 42.454 19.0387 19.043C21.1417 20.139 23.6525 20.6858 26.1072 20.6633C26.1582 20.6633 26.2022 20.6505 26.2518 20.6478C26.5884 20.8056 26.9799 20.8951 27.4395 20.8849C28.5626 20.8589 29.7016 20.8327 30.8501 20.8079C30.4072 46.8895 28.4959 72.9662 28.246 99.0353ZM86.937 100.542H81.3602C81.3555 100.542 81.352 100.543 81.3475 100.543C65.2071 100.555 49.0649 100.598 32.9653 99.4136C33.2001 73.1849 35.1362 46.9498 35.5792 20.7088C41.6827 20.5879 48.058 20.492 54.4697 20.4567L59.1953 20.4467L73.5 20.6708L77.716 20.6708C81.1163 20.7646 84.4481 20.889 87.669 21.0559C88.8579 47.5527 87.1183 74.0417 86.937 100.542Z" fill="#333333"/>
<path d="M73.7857 58.0278L73.7857 58.0278C72.8352 54.4804 69.1888 52.3751 65.6414 53.3257C65.6414 53.3257 65.6414 53.3257 65.6414 53.3257L64.2591 53.6961L61.8443 54.3431L61.1972 51.9284L60.9965 51.1794L60.9965 51.1793C60.046 47.6319 56.3997 45.5266 52.8522 46.4772C52.8522 46.4772 52.8522 46.4772 52.8522 46.4772M73.7857 58.0278L52.8522 46.4772M73.7857 58.0278C74.7363 61.5753 72.6311 65.2216 69.0836 66.1721L69.0836 66.1721L52.4399 70.6317L48.15 54.6215C48.15 54.6215 48.15 54.6215 48.15 54.6215M73.7857 58.0278L48.15 54.6215M52.8522 46.4772C49.3048 47.4277 47.1996 51.0741 48.15 54.6215M52.8522 46.4772L48.15 54.6215M64.9944 50.9108L65.0048 50.9497L64.9944 50.9108Z" stroke="#333333" stroke-width="5"/>
</svg>
