<svg width="109" height="108" viewBox="0 0 109 108" fill="none" xmlns="http://www.w3.org/2000/svg">
<path fill-rule="evenodd" clip-rule="evenodd" d="M22.0488 40.5166C22.6302 31.0467 29.5024 23.4488 36.9142 17.8938C43.1767 13.2002 50.9875 12.844 58.7096 13.0404C66.1667 13.23 73.9631 13.7449 79.4624 18.9759C85.1567 24.3924 86.7145 32.5519 87.5952 40.5166C88.6334 49.9067 91.2194 60.8944 84.8435 67.6426C78.4516 74.4075 67.835 71.3436 58.7096 71.0883C49.9796 70.844 40.7558 71.8959 33.9477 66.2185C26.5263 60.0298 21.4435 50.3778 22.0488 40.5166Z" fill="#E28726"/>
<mask id="path-2-outside-1" maskUnits="userSpaceOnUse" x="0" y="14.4395" width="109" height="94" fill="black">
<rect fill="white" y="14.4395" width="109" height="94"/>
<path d="M99.765 56.8685C99.4388 55.169 97.9524 53.9401 96.2219 53.9391H92.7365L92.4802 52.4031C92.2245 50.8603 91.009 49.655 89.4642 49.4123C89.1212 49.3581 88.7747 49.322 88.4335 49.2751C89.0246 46.5157 88.5336 43.6347 87.0618 41.2268C87.8394 39.2098 87.6943 36.9533 86.6647 35.0524C85.6351 33.1516 83.8244 31.7973 81.7101 31.3466C80.3584 24.1123 74.0649 18.8537 66.7056 18.8094C66.5251 18.8094 66.3645 18.8329 66.193 18.8383C65.0171 16.9916 63.0784 15.7659 60.9058 15.4957C58.7332 15.2255 56.5533 15.9389 54.9608 17.4413C52.9547 16.1372 50.6138 15.442 48.2211 15.4396C44.3659 15.4553 40.7324 17.2448 38.3697 20.2913C35.7463 19.5263 32.9173 19.996 30.6819 21.5677C28.4465 23.1395 27.0472 25.6427 26.8794 28.3702C24.1239 29.5285 22.3309 32.2255 22.3292 35.2146C22.3348 35.7327 22.3953 36.2488 22.5097 36.7542C20.0728 40.4278 19.436 45.0094 20.7787 49.2083C20.295 49.2751 19.8004 49.3347 19.3348 49.4033C17.7819 49.6376 16.5555 50.8435 16.2952 52.3922L16.0389 53.9337H12.5446C10.8169 53.9349 9.33235 55.1599 9.00325 56.8559L1.09938 97.4347C0.790712 99.0239 1.20929 100.668 2.24038 101.916C3.27146 103.164 4.80689 103.885 6.42578 103.882H44.0661C45.5606 106.348 50.1019 107.492 54.3832 107.492C58.6194 107.492 63.1174 106.375 64.6552 103.882H102.341C103.959 103.885 105.494 103.164 106.525 101.916C107.556 100.669 107.975 99.0254 107.667 97.4365L99.765 56.8685ZM27.7873 38.4815C26.3218 37.6004 25.6224 35.8511 26.0764 34.2025C26.5304 32.5538 28.0267 31.4092 29.7367 31.4025C30.9334 31.399 32.0597 31.9678 32.7672 32.9331C33.1515 33.4509 33.7829 33.7244 34.4235 33.6504C35.0641 33.5765 35.6166 33.1664 35.8729 32.5747C36.1291 31.9829 36.0503 31.2994 35.6659 30.7816C34.4403 29.1435 32.5829 28.0957 30.5471 27.8937C31.0852 25.3659 33.3143 23.5563 35.8988 23.5492C36.119 23.5604 36.3384 23.5845 36.5558 23.6214C36.4106 23.9914 36.284 24.3685 36.1767 24.7513C35.9521 25.7067 36.5321 26.6666 37.4824 26.912C38.4327 27.1574 39.405 26.5985 39.6711 25.6538C39.8763 24.8605 40.1917 24.0998 40.6079 23.394C42.2089 20.7117 45.0974 19.0634 48.2211 19.0495C49.9212 19.057 51.5824 19.5587 53.0024 20.4934C52.7319 21.2535 52.5886 22.053 52.5783 22.8597C52.5783 23.8566 53.3864 24.6647 54.3832 24.6647C55.3801 24.6647 56.1882 23.8566 56.1882 22.8597C56.1882 20.7628 57.888 19.063 59.9849 19.063C62.0817 19.063 63.7816 20.7628 63.7816 22.8597C63.7816 23.8566 64.5897 24.6647 65.5865 24.6647C66.5834 24.6647 67.3915 23.8566 67.3915 22.8597C67.3915 22.7207 67.3572 22.589 67.35 22.45C72.5181 22.7689 76.8641 26.4426 78.0388 31.4855C77.1969 31.7307 76.4058 32.125 75.7033 32.6497C75.1874 33.0366 74.9171 33.6694 74.9942 34.3096C75.0714 34.9498 75.4842 35.5002 76.0772 35.7536C76.6702 36.0069 77.3533 35.9246 77.8692 35.5377C79.3115 34.4698 81.304 34.5549 82.6499 35.742C83.9959 36.9291 84.3294 38.8953 83.4501 40.4597C83.0572 41.1506 82.4601 41.7029 81.7408 42.0409C80.9865 42.4061 80.5828 43.2425 80.7662 44.0603C80.9495 44.8781 81.6717 45.4621 82.5097 45.4703C82.7744 45.4707 83.0358 45.4121 83.275 45.2988C83.7534 45.067 84.2054 44.7844 84.6233 44.4559C85.5563 47.1084 84.9711 50.0585 83.0963 52.154L83.053 52.1991C80.7016 54.7464 76.9505 55.4348 73.8478 53.8886C73.5439 53.728 73.2519 53.5459 72.9742 53.3435C74.3036 51.4796 74.4873 49.0314 73.4507 46.99C73.1605 46.4139 72.585 46.0363 71.9409 45.9995C71.2968 45.9627 70.6821 46.2723 70.3282 46.8117C69.9743 47.3511 69.9351 48.0383 70.2252 48.6145C70.8187 49.8075 70.4486 51.2552 69.3552 52.0168C68.7132 52.4443 67.9201 52.5795 67.1727 52.3888C66.4253 52.1982 65.7938 51.6996 65.4349 51.0169C65.1463 50.4401 64.572 50.061 63.9281 50.0225C63.2843 49.984 62.6689 50.2919 62.3136 50.8302C61.9584 51.3685 61.9173 52.0555 62.2059 52.6323C63.2644 54.7692 65.4454 56.1186 67.8301 56.1122C68.6064 56.107 69.3748 55.9558 70.0953 55.6664C70.74 56.2308 71.4502 56.7156 72.2107 57.1104C74.7831 58.4438 77.7745 58.7203 80.5477 57.8811C78.764 60.3166 76.0945 61.9534 73.115 62.4386C72.188 62.5895 71.5317 63.426 71.6056 64.3623C71.6796 65.2985 72.4592 66.0216 73.3983 66.025C73.4944 66.025 73.5903 66.0177 73.6853 66.0034C74.7844 65.8131 75.8585 65.4994 76.8873 65.0684C77.4433 66.0515 77.8946 67.0902 78.2338 68.1675C78.2959 68.3556 78.3276 68.5524 78.3276 68.7505C78.3272 69.5306 77.8613 70.2352 77.1436 70.541C76.3134 70.8621 75.3708 70.6088 74.8134 69.9147C73.4156 68.2732 71.5852 67.0569 69.5303 66.4041C65.6298 65.0973 64.1245 63.9295 63.4856 62.6588C64.4221 62.5419 65.3475 62.3488 66.2525 62.0812C66.869 61.8916 67.3375 61.3876 67.4816 60.7589C67.6256 60.1302 67.4233 59.4724 66.9509 59.0334C66.4785 58.5943 65.8077 58.4406 65.1912 58.6301C64.1785 58.9409 63.133 59.1329 62.0759 59.2023C60.0393 59.3615 57.9933 59.0528 56.0943 58.2998C55.3813 58.0218 54.5704 58.2236 54.071 58.8034C51.443 61.8221 46.9453 62.3352 43.705 59.9859C40.4647 57.6366 39.554 53.2023 41.606 49.7661C41.9384 49.2112 41.9496 48.5211 41.6352 47.9558C41.3209 47.3904 40.7288 47.0357 40.0821 47.0253C39.4353 47.0149 38.8321 47.3503 38.4997 47.9052C38.0691 48.6381 37.7227 49.4173 37.4673 50.2281C36.0459 50.1533 34.9251 48.9908 34.9024 47.5676V47.5225C34.9015 47.0462 34.7103 46.5901 34.3713 46.2555C34.0323 45.921 33.5737 45.7357 33.0975 45.741C32.0963 45.7509 31.2905 46.5664 31.2925 47.5676C31.3006 50.7686 33.7145 53.4516 36.8969 53.7965C36.9034 54.4016 36.9583 55.0051 37.0611 55.6014C33.0311 56.4735 28.8511 55.0249 26.2249 51.846C23.5988 48.6672 22.9649 44.289 24.5817 40.4958C24.9855 40.9044 25.4363 41.2637 25.9246 41.5662C26.7773 42.0656 27.8731 41.7866 28.383 40.9402C28.8929 40.0938 28.6274 38.9946 27.7873 38.4743V38.4815ZM19.8456 52.9807C20.6776 52.8579 21.5368 52.7496 22.3905 52.6377C25.7277 57.9707 32.1104 60.5601 38.2199 59.0597C39.8615 62.1754 42.8612 64.3481 46.3333 64.9366C49.8054 65.5251 53.3535 64.4621 55.9301 62.0614C57.1567 62.4272 58.42 62.656 59.697 62.7436C60.5688 66.0503 63.0885 68.0538 68.3824 69.828C69.8095 70.2754 71.0827 71.114 72.0573 72.2485C73.1408 73.5369 74.7346 74.2857 76.418 74.2971C77.1543 74.2968 77.8829 74.1483 78.5605 73.8603C80.6065 72.9859 81.9337 70.9755 81.9339 68.7505C81.9356 68.1702 81.8429 67.5935 81.6596 67.043C81.2537 65.7677 80.7191 64.537 80.064 63.3699C83.1333 61.1635 85.2714 57.8936 86.0618 54.1972C86.4463 53.7405 86.7939 53.254 87.1015 52.7424C87.7062 52.82 88.3108 52.8886 88.9191 52.9897L95.4349 92.1823C82.6983 87.9293 68.9248 87.9293 56.1882 92.1823V69.588C56.1882 68.5911 55.3801 67.783 54.3832 67.783C53.3864 67.783 52.5783 68.5911 52.5783 69.588V92.1895C39.8431 87.9326 26.0698 87.9276 13.3315 92.1751L19.8456 52.9807ZM5.01973 99.6079C4.67867 99.1959 4.53964 98.653 4.64069 98.1278L12.5446 57.549H15.4325L9.76854 91.5885C9.56933 92.8275 10.0255 94.0813 10.9744 94.9026C11.9232 95.7238 13.2295 95.9955 14.4271 95.6207C24.0493 92.5033 34.3004 91.8529 44.2394 93.7291L43.7015 100.272H6.42578C5.88126 100.272 5.36526 100.029 5.01973 99.6079ZM54.3832 103.882C50.0351 103.882 47.5407 102.597 47.1743 102.025L47.7952 94.5341C49.7799 95.0283 51.7221 95.6795 53.6035 96.4817C53.8468 96.5989 54.1131 96.6606 54.3832 96.6622C54.654 96.6618 54.9212 96.6001 55.1648 96.4817C57.045 95.6748 58.9867 95.0194 60.9713 94.5215L61.5922 102.023C61.2258 102.597 58.7313 103.882 54.3832 103.882ZM103.747 99.6079C103.401 100.029 102.885 100.272 102.341 100.272H65.0703L64.5288 93.7165C74.4733 91.8441 84.7289 92.5001 94.3538 95.6243C95.5511 95.9942 96.8546 95.7186 97.7998 94.8958C98.745 94.073 99.1975 92.8199 98.9961 91.5831L93.3376 57.5508H96.2255L104.131 98.126C104.231 98.6526 104.09 99.1963 103.747 99.6079Z"/>
</mask>
<path d="M99.765 56.8685C99.4388 55.169 97.9524 53.9401 96.2219 53.9391H92.7365L92.4802 52.4031C92.2245 50.8603 91.009 49.655 89.4642 49.4123C89.1212 49.3581 88.7747 49.322 88.4335 49.2751C89.0246 46.5157 88.5336 43.6347 87.0618 41.2268C87.8394 39.2098 87.6943 36.9533 86.6647 35.0524C85.6351 33.1516 83.8244 31.7973 81.7101 31.3466C80.3584 24.1123 74.0649 18.8537 66.7056 18.8094C66.5251 18.8094 66.3645 18.8329 66.193 18.8383C65.0171 16.9916 63.0784 15.7659 60.9058 15.4957C58.7332 15.2255 56.5533 15.9389 54.9608 17.4413C52.9547 16.1372 50.6138 15.442 48.2211 15.4396C44.3659 15.4553 40.7324 17.2448 38.3697 20.2913C35.7463 19.5263 32.9173 19.996 30.6819 21.5677C28.4465 23.1395 27.0472 25.6427 26.8794 28.3702C24.1239 29.5285 22.3309 32.2255 22.3292 35.2146C22.3348 35.7327 22.3953 36.2488 22.5097 36.7542C20.0728 40.4278 19.436 45.0094 20.7787 49.2083C20.295 49.2751 19.8004 49.3347 19.3348 49.4033C17.7819 49.6376 16.5555 50.8435 16.2952 52.3922L16.0389 53.9337H12.5446C10.8169 53.9349 9.33235 55.1599 9.00325 56.8559L1.09938 97.4347C0.790712 99.0239 1.20929 100.668 2.24038 101.916C3.27146 103.164 4.80689 103.885 6.42578 103.882H44.0661C45.5606 106.348 50.1019 107.492 54.3832 107.492C58.6194 107.492 63.1174 106.375 64.6552 103.882H102.341C103.959 103.885 105.494 103.164 106.525 101.916C107.556 100.669 107.975 99.0254 107.667 97.4365L99.765 56.8685ZM27.7873 38.4815C26.3218 37.6004 25.6224 35.8511 26.0764 34.2025C26.5304 32.5538 28.0267 31.4092 29.7367 31.4025C30.9334 31.399 32.0597 31.9678 32.7672 32.9331C33.1515 33.4509 33.7829 33.7244 34.4235 33.6504C35.0641 33.5765 35.6166 33.1664 35.8729 32.5747C36.1291 31.9829 36.0503 31.2994 35.6659 30.7816C34.4403 29.1435 32.5829 28.0957 30.5471 27.8937C31.0852 25.3659 33.3143 23.5563 35.8988 23.5492C36.119 23.5604 36.3384 23.5845 36.5558 23.6214C36.4106 23.9914 36.284 24.3685 36.1767 24.7513C35.9521 25.7067 36.5321 26.6666 37.4824 26.912C38.4327 27.1574 39.405 26.5985 39.6711 25.6538C39.8763 24.8605 40.1917 24.0998 40.6079 23.394C42.2089 20.7117 45.0974 19.0634 48.2211 19.0495C49.9212 19.057 51.5824 19.5587 53.0024 20.4934C52.7319 21.2535 52.5886 22.053 52.5783 22.8597C52.5783 23.8566 53.3864 24.6647 54.3832 24.6647C55.3801 24.6647 56.1882 23.8566 56.1882 22.8597C56.1882 20.7628 57.888 19.063 59.9849 19.063C62.0817 19.063 63.7816 20.7628 63.7816 22.8597C63.7816 23.8566 64.5897 24.6647 65.5865 24.6647C66.5834 24.6647 67.3915 23.8566 67.3915 22.8597C67.3915 22.7207 67.3572 22.589 67.35 22.45C72.5181 22.7689 76.8641 26.4426 78.0388 31.4855C77.1969 31.7307 76.4058 32.125 75.7033 32.6497C75.1874 33.0366 74.9171 33.6694 74.9942 34.3096C75.0714 34.9498 75.4842 35.5002 76.0772 35.7536C76.6702 36.0069 77.3533 35.9246 77.8692 35.5377C79.3115 34.4698 81.304 34.5549 82.6499 35.742C83.9959 36.9291 84.3294 38.8953 83.4501 40.4597C83.0572 41.1506 82.4601 41.7029 81.7408 42.0409C80.9865 42.4061 80.5828 43.2425 80.7662 44.0603C80.9495 44.8781 81.6717 45.4621 82.5097 45.4703C82.7744 45.4707 83.0358 45.4121 83.275 45.2988C83.7534 45.067 84.2054 44.7844 84.6233 44.4559C85.5563 47.1084 84.9711 50.0585 83.0963 52.154L83.053 52.1991C80.7016 54.7464 76.9505 55.4348 73.8478 53.8886C73.5439 53.728 73.2519 53.5459 72.9742 53.3435C74.3036 51.4796 74.4873 49.0314 73.4507 46.99C73.1605 46.4139 72.585 46.0363 71.9409 45.9995C71.2968 45.9627 70.6821 46.2723 70.3282 46.8117C69.9743 47.3511 69.9351 48.0383 70.2252 48.6145C70.8187 49.8075 70.4486 51.2552 69.3552 52.0168C68.7132 52.4443 67.9201 52.5795 67.1727 52.3888C66.4253 52.1982 65.7938 51.6996 65.4349 51.0169C65.1463 50.4401 64.572 50.061 63.9281 50.0225C63.2843 49.984 62.6689 50.2919 62.3136 50.8302C61.9584 51.3685 61.9173 52.0555 62.2059 52.6323C63.2644 54.7692 65.4454 56.1186 67.8301 56.1122C68.6064 56.107 69.3748 55.9558 70.0953 55.6664C70.74 56.2308 71.4502 56.7156 72.2107 57.1104C74.7831 58.4438 77.7745 58.7203 80.5477 57.8811C78.764 60.3166 76.0945 61.9534 73.115 62.4386C72.188 62.5895 71.5317 63.426 71.6056 64.3623C71.6796 65.2985 72.4592 66.0216 73.3983 66.025C73.4944 66.025 73.5903 66.0177 73.6853 66.0034C74.7844 65.8131 75.8585 65.4994 76.8873 65.0684C77.4433 66.0515 77.8946 67.0902 78.2338 68.1675C78.2959 68.3556 78.3276 68.5524 78.3276 68.7505C78.3272 69.5306 77.8613 70.2352 77.1436 70.541C76.3134 70.8621 75.3708 70.6088 74.8134 69.9147C73.4156 68.2732 71.5852 67.0569 69.5303 66.4041C65.6298 65.0973 64.1245 63.9295 63.4856 62.6588C64.4221 62.5419 65.3475 62.3488 66.2525 62.0812C66.869 61.8916 67.3375 61.3876 67.4816 60.7589C67.6256 60.1302 67.4233 59.4724 66.9509 59.0334C66.4785 58.5943 65.8077 58.4406 65.1912 58.6301C64.1785 58.9409 63.133 59.1329 62.0759 59.2023C60.0393 59.3615 57.9933 59.0528 56.0943 58.2998C55.3813 58.0218 54.5704 58.2236 54.071 58.8034C51.443 61.8221 46.9453 62.3352 43.705 59.9859C40.4647 57.6366 39.554 53.2023 41.606 49.7661C41.9384 49.2112 41.9496 48.5211 41.6352 47.9558C41.3209 47.3904 40.7288 47.0357 40.0821 47.0253C39.4353 47.0149 38.8321 47.3503 38.4997 47.9052C38.0691 48.6381 37.7227 49.4173 37.4673 50.2281C36.0459 50.1533 34.9251 48.9908 34.9024 47.5676V47.5225C34.9015 47.0462 34.7103 46.5901 34.3713 46.2555C34.0323 45.921 33.5737 45.7357 33.0975 45.741C32.0963 45.7509 31.2905 46.5664 31.2925 47.5676C31.3006 50.7686 33.7145 53.4516 36.8969 53.7965C36.9034 54.4016 36.9583 55.0051 37.0611 55.6014C33.0311 56.4735 28.8511 55.0249 26.2249 51.846C23.5988 48.6672 22.9649 44.289 24.5817 40.4958C24.9855 40.9044 25.4363 41.2637 25.9246 41.5662C26.7773 42.0656 27.8731 41.7866 28.383 40.9402C28.8929 40.0938 28.6274 38.9946 27.7873 38.4743V38.4815ZM19.8456 52.9807C20.6776 52.8579 21.5368 52.7496 22.3905 52.6377C25.7277 57.9707 32.1104 60.5601 38.2199 59.0597C39.8615 62.1754 42.8612 64.3481 46.3333 64.9366C49.8054 65.5251 53.3535 64.4621 55.9301 62.0614C57.1567 62.4272 58.42 62.656 59.697 62.7436C60.5688 66.0503 63.0885 68.0538 68.3824 69.828C69.8095 70.2754 71.0827 71.114 72.0573 72.2485C73.1408 73.5369 74.7346 74.2857 76.418 74.2971C77.1543 74.2968 77.8829 74.1483 78.5605 73.8603C80.6065 72.9859 81.9337 70.9755 81.9339 68.7505C81.9356 68.1702 81.8429 67.5935 81.6596 67.043C81.2537 65.7677 80.7191 64.537 80.064 63.3699C83.1333 61.1635 85.2714 57.8936 86.0618 54.1972C86.4463 53.7405 86.7939 53.254 87.1015 52.7424C87.7062 52.82 88.3108 52.8886 88.9191 52.9897L95.4349 92.1823C82.6983 87.9293 68.9248 87.9293 56.1882 92.1823V69.588C56.1882 68.5911 55.3801 67.783 54.3832 67.783C53.3864 67.783 52.5783 68.5911 52.5783 69.588V92.1895C39.8431 87.9326 26.0698 87.9276 13.3315 92.1751L19.8456 52.9807ZM5.01973 99.6079C4.67867 99.1959 4.53964 98.653 4.64069 98.1278L12.5446 57.549H15.4325L9.76854 91.5885C9.56933 92.8275 10.0255 94.0813 10.9744 94.9026C11.9232 95.7238 13.2295 95.9955 14.4271 95.6207C24.0493 92.5033 34.3004 91.8529 44.2394 93.7291L43.7015 100.272H6.42578C5.88126 100.272 5.36526 100.029 5.01973 99.6079ZM54.3832 103.882C50.0351 103.882 47.5407 102.597 47.1743 102.025L47.7952 94.5341C49.7799 95.0283 51.7221 95.6795 53.6035 96.4817C53.8468 96.5989 54.1131 96.6606 54.3832 96.6622C54.654 96.6618 54.9212 96.6001 55.1648 96.4817C57.045 95.6748 58.9867 95.0194 60.9713 94.5215L61.5922 102.023C61.2258 102.597 58.7313 103.882 54.3832 103.882ZM103.747 99.6079C103.401 100.029 102.885 100.272 102.341 100.272H65.0703L64.5288 93.7165C74.4733 91.8441 84.7289 92.5001 94.3538 95.6243C95.5511 95.9942 96.8546 95.7186 97.7998 94.8958C98.745 94.073 99.1975 92.8199 98.9961 91.5831L93.3376 57.5508H96.2255L104.131 98.126C104.231 98.6526 104.09 99.1963 103.747 99.6079Z" fill="#333333"/>
<path d="M99.765 56.8685C99.4388 55.169 97.9524 53.9401 96.2219 53.9391H92.7365L92.4802 52.4031C92.2245 50.8603 91.009 49.655 89.4642 49.4123C89.1212 49.3581 88.7747 49.322 88.4335 49.2751C89.0246 46.5157 88.5336 43.6347 87.0618 41.2268C87.8394 39.2098 87.6943 36.9533 86.6647 35.0524C85.6351 33.1516 83.8244 31.7973 81.7101 31.3466C80.3584 24.1123 74.0649 18.8537 66.7056 18.8094C66.5251 18.8094 66.3645 18.8329 66.193 18.8383C65.0171 16.9916 63.0784 15.7659 60.9058 15.4957C58.7332 15.2255 56.5533 15.9389 54.9608 17.4413C52.9547 16.1372 50.6138 15.442 48.2211 15.4396C44.3659 15.4553 40.7324 17.2448 38.3697 20.2913C35.7463 19.5263 32.9173 19.996 30.6819 21.5677C28.4465 23.1395 27.0472 25.6427 26.8794 28.3702C24.1239 29.5285 22.3309 32.2255 22.3292 35.2146C22.3348 35.7327 22.3953 36.2488 22.5097 36.7542C20.0728 40.4278 19.436 45.0094 20.7787 49.2083C20.295 49.2751 19.8004 49.3347 19.3348 49.4033C17.7819 49.6376 16.5555 50.8435 16.2952 52.3922L16.0389 53.9337H12.5446C10.8169 53.9349 9.33235 55.1599 9.00325 56.8559L1.09938 97.4347C0.790712 99.0239 1.20929 100.668 2.24038 101.916C3.27146 103.164 4.80689 103.885 6.42578 103.882H44.0661C45.5606 106.348 50.1019 107.492 54.3832 107.492C58.6194 107.492 63.1174 106.375 64.6552 103.882H102.341C103.959 103.885 105.494 103.164 106.525 101.916C107.556 100.669 107.975 99.0254 107.667 97.4365L99.765 56.8685ZM27.7873 38.4815C26.3218 37.6004 25.6224 35.8511 26.0764 34.2025C26.5304 32.5538 28.0267 31.4092 29.7367 31.4025C30.9334 31.399 32.0597 31.9678 32.7672 32.9331C33.1515 33.4509 33.7829 33.7244 34.4235 33.6504C35.0641 33.5765 35.6166 33.1664 35.8729 32.5747C36.1291 31.9829 36.0503 31.2994 35.6659 30.7816C34.4403 29.1435 32.5829 28.0957 30.5471 27.8937C31.0852 25.3659 33.3143 23.5563 35.8988 23.5492C36.119 23.5604 36.3384 23.5845 36.5558 23.6214C36.4106 23.9914 36.284 24.3685 36.1767 24.7513C35.9521 25.7067 36.5321 26.6666 37.4824 26.912C38.4327 27.1574 39.405 26.5985 39.6711 25.6538C39.8763 24.8605 40.1917 24.0998 40.6079 23.394C42.2089 20.7117 45.0974 19.0634 48.2211 19.0495C49.9212 19.057 51.5824 19.5587 53.0024 20.4934C52.7319 21.2535 52.5886 22.053 52.5783 22.8597C52.5783 23.8566 53.3864 24.6647 54.3832 24.6647C55.3801 24.6647 56.1882 23.8566 56.1882 22.8597C56.1882 20.7628 57.888 19.063 59.9849 19.063C62.0817 19.063 63.7816 20.7628 63.7816 22.8597C63.7816 23.8566 64.5897 24.6647 65.5865 24.6647C66.5834 24.6647 67.3915 23.8566 67.3915 22.8597C67.3915 22.7207 67.3572 22.589 67.35 22.45C72.5181 22.7689 76.8641 26.4426 78.0388 31.4855C77.1969 31.7307 76.4058 32.125 75.7033 32.6497C75.1874 33.0366 74.9171 33.6694 74.9942 34.3096C75.0714 34.9498 75.4842 35.5002 76.0772 35.7536C76.6702 36.0069 77.3533 35.9246 77.8692 35.5377C79.3115 34.4698 81.304 34.5549 82.6499 35.742C83.9959 36.9291 84.3294 38.8953 83.4501 40.4597C83.0572 41.1506 82.4601 41.7029 81.7408 42.0409C80.9865 42.4061 80.5828 43.2425 80.7662 44.0603C80.9495 44.8781 81.6717 45.4621 82.5097 45.4703C82.7744 45.4707 83.0358 45.4121 83.275 45.2988C83.7534 45.067 84.2054 44.7844 84.6233 44.4559C85.5563 47.1084 84.9711 50.0585 83.0963 52.154L83.053 52.1991C80.7016 54.7464 76.9505 55.4348 73.8478 53.8886C73.5439 53.728 73.2519 53.5459 72.9742 53.3435C74.3036 51.4796 74.4873 49.0314 73.4507 46.99C73.1605 46.4139 72.585 46.0363 71.9409 45.9995C71.2968 45.9627 70.6821 46.2723 70.3282 46.8117C69.9743 47.3511 69.9351 48.0383 70.2252 48.6145C70.8187 49.8075 70.4486 51.2552 69.3552 52.0168C68.7132 52.4443 67.9201 52.5795 67.1727 52.3888C66.4253 52.1982 65.7938 51.6996 65.4349 51.0169C65.1463 50.4401 64.572 50.061 63.9281 50.0225C63.2843 49.984 62.6689 50.2919 62.3136 50.8302C61.9584 51.3685 61.9173 52.0555 62.2059 52.6323C63.2644 54.7692 65.4454 56.1186 67.8301 56.1122C68.6064 56.107 69.3748 55.9558 70.0953 55.6664C70.74 56.2308 71.4502 56.7156 72.2107 57.1104C74.7831 58.4438 77.7745 58.7203 80.5477 57.8811C78.764 60.3166 76.0945 61.9534 73.115 62.4386C72.188 62.5895 71.5317 63.426 71.6056 64.3623C71.6796 65.2985 72.4592 66.0216 73.3983 66.025C73.4944 66.025 73.5903 66.0177 73.6853 66.0034C74.7844 65.8131 75.8585 65.4994 76.8873 65.0684C77.4433 66.0515 77.8946 67.0902 78.2338 68.1675C78.2959 68.3556 78.3276 68.5524 78.3276 68.7505C78.3272 69.5306 77.8613 70.2352 77.1436 70.541C76.3134 70.8621 75.3708 70.6088 74.8134 69.9147C73.4156 68.2732 71.5852 67.0569 69.5303 66.4041C65.6298 65.0973 64.1245 63.9295 63.4856 62.6588C64.4221 62.5419 65.3475 62.3488 66.2525 62.0812C66.869 61.8916 67.3375 61.3876 67.4816 60.7589C67.6256 60.1302 67.4233 59.4724 66.9509 59.0334C66.4785 58.5943 65.8077 58.4406 65.1912 58.6301C64.1785 58.9409 63.133 59.1329 62.0759 59.2023C60.0393 59.3615 57.9933 59.0528 56.0943 58.2998C55.3813 58.0218 54.5704 58.2236 54.071 58.8034C51.443 61.8221 46.9453 62.3352 43.705 59.9859C40.4647 57.6366 39.554 53.2023 41.606 49.7661C41.9384 49.2112 41.9496 48.5211 41.6352 47.9558C41.3209 47.3904 40.7288 47.0357 40.0821 47.0253C39.4353 47.0149 38.8321 47.3503 38.4997 47.9052C38.0691 48.6381 37.7227 49.4173 37.4673 50.2281C36.0459 50.1533 34.9251 48.9908 34.9024 47.5676V47.5225C34.9015 47.0462 34.7103 46.5901 34.3713 46.2555C34.0323 45.921 33.5737 45.7357 33.0975 45.741C32.0963 45.7509 31.2905 46.5664 31.2925 47.5676C31.3006 50.7686 33.7145 53.4516 36.8969 53.7965C36.9034 54.4016 36.9583 55.0051 37.0611 55.6014C33.0311 56.4735 28.8511 55.0249 26.2249 51.846C23.5988 48.6672 22.9649 44.289 24.5817 40.4958C24.9855 40.9044 25.4363 41.2637 25.9246 41.5662C26.7773 42.0656 27.8731 41.7866 28.383 40.9402C28.8929 40.0938 28.6274 38.9946 27.7873 38.4743V38.4815ZM19.8456 52.9807C20.6776 52.8579 21.5368 52.7496 22.3905 52.6377C25.7277 57.9707 32.1104 60.5601 38.2199 59.0597C39.8615 62.1754 42.8612 64.3481 46.3333 64.9366C49.8054 65.5251 53.3535 64.4621 55.9301 62.0614C57.1567 62.4272 58.42 62.656 59.697 62.7436C60.5688 66.0503 63.0885 68.0538 68.3824 69.828C69.8095 70.2754 71.0827 71.114 72.0573 72.2485C73.1408 73.5369 74.7346 74.2857 76.418 74.2971C77.1543 74.2968 77.8829 74.1483 78.5605 73.8603C80.6065 72.9859 81.9337 70.9755 81.9339 68.7505C81.9356 68.1702 81.8429 67.5935 81.6596 67.043C81.2537 65.7677 80.7191 64.537 80.064 63.3699C83.1333 61.1635 85.2714 57.8936 86.0618 54.1972C86.4463 53.7405 86.7939 53.254 87.1015 52.7424C87.7062 52.82 88.3108 52.8886 88.9191 52.9897L95.4349 92.1823C82.6983 87.9293 68.9248 87.9293 56.1882 92.1823V69.588C56.1882 68.5911 55.3801 67.783 54.3832 67.783C53.3864 67.783 52.5783 68.5911 52.5783 69.588V92.1895C39.8431 87.9326 26.0698 87.9276 13.3315 92.1751L19.8456 52.9807ZM5.01973 99.6079C4.67867 99.1959 4.53964 98.653 4.64069 98.1278L12.5446 57.549H15.4325L9.76854 91.5885C9.56933 92.8275 10.0255 94.0813 10.9744 94.9026C11.9232 95.7238 13.2295 95.9955 14.4271 95.6207C24.0493 92.5033 34.3004 91.8529 44.2394 93.7291L43.7015 100.272H6.42578C5.88126 100.272 5.36526 100.029 5.01973 99.6079ZM54.3832 103.882C50.0351 103.882 47.5407 102.597 47.1743 102.025L47.7952 94.5341C49.7799 95.0283 51.7221 95.6795 53.6035 96.4817C53.8468 96.5989 54.1131 96.6606 54.3832 96.6622C54.654 96.6618 54.9212 96.6001 55.1648 96.4817C57.045 95.6748 58.9867 95.0194 60.9713 94.5215L61.5922 102.023C61.2258 102.597 58.7313 103.882 54.3832 103.882ZM103.747 99.6079C103.401 100.029 102.885 100.272 102.341 100.272H65.0703L64.5288 93.7165C74.4733 91.8441 84.7289 92.5001 94.3538 95.6243C95.5511 95.9942 96.8546 95.7186 97.7998 94.8958C98.745 94.073 99.1975 92.8199 98.9961 91.5831L93.3376 57.5508H96.2255L104.131 98.126C104.231 98.6526 104.09 99.1963 103.747 99.6079Z" stroke="#333333" mask="url(#path-2-outside-1)"/>
<path d="M48.2339 41.7598L48.234 41.7597C49.0751 40.9996 50.3729 41.0644 51.1342 41.9041C53.521 44.4592 57.4103 44.9024 60.3107 42.9497C61.8163 41.913 62.8525 40.3246 63.1944 38.5289C63.3215 37.7976 63.833 37.1916 64.5327 36.9436C65.2332 36.6955 66.013 36.8448 66.5722 37.3341C67.131 37.823 67.3825 38.5753 67.2303 39.3019C66.3491 43.8219 62.78 47.3291 58.2564 48.1383C56.8652 51.6562 53.4573 53.9694 49.6645 53.9544C49.6644 53.9544 49.6642 53.9544 49.6641 53.9544L49.665 53.7044C48.6682 53.7044 47.8601 52.8963 47.8601 51.8995C47.8601 50.9027 48.6682 50.0946 49.665 50.0946L48.2339 41.7598ZM48.2339 41.7598C47.3927 42.521 47.3273 43.8198 48.088 44.6614L48.0881 44.6616C49.5667 46.294 51.494 47.4491 53.6243 47.9849L48.2339 41.7598Z" fill="#333333" stroke="#333333" stroke-width="0.5"/>
<path d="M48.6074 29.6292L48.6072 29.6292C43.8859 29.6343 40.0598 33.4604 40.0547 38.1816V38.1819C40.0547 38.7269 40.2712 39.2496 40.6566 39.635C41.0419 40.0204 41.5646 40.2369 42.1096 40.2369C43.2445 40.2369 44.1646 39.3168 44.1646 38.1819C44.1646 37.0036 44.6327 35.8735 45.4659 35.0403C46.2991 34.2071 47.4291 33.739 48.6074 33.739C49.7424 33.739 50.6624 32.819 50.6624 31.6841C50.6624 30.5492 49.7424 29.6292 48.6074 29.6292Z" fill="#333333" stroke="#333333" stroke-width="0.5"/>
<path d="M56.4383 4.60989V2.80495C56.4383 1.67003 55.5182 0.75 54.3833 0.75C53.2484 0.75 52.3284 1.67003 52.3284 2.80495V4.60989C52.3284 5.74481 53.2484 6.66484 54.3833 6.66484C55.5182 6.66484 56.4383 5.74481 56.4383 4.60989Z" fill="#333333" stroke="#333333" stroke-width="0.5"/>
<path d="M83.8242 13.777L82.0223 15.579C81.4893 16.0949 81.2756 16.8581 81.4635 17.5759C81.6516 18.2943 82.2127 18.8554 82.9311 19.0435C83.6489 19.2314 84.4121 19.0177 84.928 18.4847L86.73 16.6828C87.263 16.1668 87.4766 15.4036 87.2888 14.6859C87.1007 13.9674 86.5396 13.4063 85.8211 13.2182C85.1034 13.0304 84.3402 13.244 83.8242 13.777Z" fill="#333333" stroke="#333333" stroke-width="0.5"/>
<path d="M26.7457 15.5805L26.7456 15.5805L24.9422 13.777C24.4262 13.244 23.663 13.0304 22.9453 13.2182C22.2268 13.4063 21.6657 13.9674 21.4777 14.6859C21.2898 15.4036 21.5034 16.1668 22.0364 16.6828L23.8399 18.4862C23.8399 18.4862 23.8399 18.4862 23.8399 18.4862C24.2252 18.8716 24.7478 19.0882 25.2927 19.0883H25.2928C26.1238 19.0881 26.8729 18.5874 27.1909 17.8197C27.5089 17.0519 27.3332 16.1682 26.7457 15.5805Z" fill="#333333" stroke="#333333" stroke-width="0.5"/>
<path d="M39.1875 11.4931L39.188 11.4931C39.4575 11.4925 39.7244 11.4395 39.9737 11.3372L39.9744 11.3369C40.4781 11.1282 40.8782 10.728 41.0867 10.2243C41.2952 9.72057 41.295 9.15466 41.0861 8.65111C41.0861 8.65109 41.0861 8.65107 41.0861 8.65105L39.0132 3.65017C38.7422 2.95771 38.1182 2.4656 37.3815 2.36358C36.6439 2.26144 35.9087 2.56633 35.4599 3.16052C35.0116 3.75396 34.9191 4.54322 35.2176 5.22421L37.2887 10.2251L37.2887 10.2252C37.607 10.9929 38.3564 11.4933 39.1875 11.4931Z" fill="#333333" stroke="#333333" stroke-width="0.5"/>
<path d="M72.438 2.53604L72.438 2.53603C71.3899 2.10244 70.1887 2.60003 69.7543 3.64776L69.7543 3.64779L67.6805 8.65084C67.6805 8.65088 67.6804 8.65091 67.6804 8.65095C67.471 9.15473 67.4704 9.72114 67.679 10.2253C67.8875 10.7295 68.288 11.1301 68.7922 11.3387L68.7928 11.339C69.0422 11.4413 69.309 11.4943 69.5785 11.4949H69.579C70.4101 11.4951 71.1595 10.9947 71.4778 10.227L71.4778 10.2269L73.5498 5.22391C73.5498 5.22386 73.5498 5.2238 73.5498 5.22374C73.7593 4.71997 73.7598 4.15359 73.5513 3.64944L73.3203 3.74499L73.5513 3.64944C73.3427 3.14523 72.9422 2.74466 72.438 2.53604Z" fill="#333333" stroke="#333333" stroke-width="0.5"/>
<path d="M95.285 26.957L95.2851 26.957C95.9634 26.6762 96.7401 26.7786 97.3225 27.2257C97.9048 27.6727 98.2045 28.3965 98.1085 29.1244C98.0125 29.8523 97.5355 30.4737 96.8572 30.7545C96.8571 30.7545 96.8571 30.7545 96.8571 30.7545L91.8562 32.8263C91.8561 32.8264 91.856 32.8264 91.8559 32.8265C91.6067 32.9303 91.3394 32.984 91.0694 32.9846C91.0693 32.9846 91.0692 32.9846 91.0691 32.9846L91.0687 32.7346C90.2056 32.7372 89.4614 32.1284 89.2929 31.2819C89.1245 30.4353 89.579 29.588 90.3774 29.2601L95.285 26.957ZM95.285 26.957L90.2824 29.0288C90.2823 29.0289 90.2822 29.0289 90.282 29.0289L95.285 26.957Z" fill="#333333" stroke="#333333" stroke-width="0.5"/>
<path d="M18.4845 29.0291L18.4846 29.0291C19.5332 29.4638 20.0309 30.6662 19.5963 31.7148C19.1616 32.7635 17.9592 33.2612 16.9106 32.8266L18.4845 29.0291ZM18.4845 29.0291L13.4812 26.957L13.4812 26.957C12.4325 26.5229 11.2305 27.0211 10.7964 28.0697C10.3623 29.1184 10.8605 30.3204 11.9091 30.7545C11.9091 30.7545 11.9091 30.7545 11.9091 30.7545L16.9105 32.8265L18.4845 29.0291Z" fill="#333333" stroke="#333333" stroke-width="0.5"/>
</svg>
