<svg width="487" height="57" viewBox="0 0 487 57" fill="none" xmlns="http://www.w3.org/2000/svg">
<path d="M48.4238 5.40041C44.3834 5.2433 40.4367 4.4242 36.3477 2.53884C33.3977 1.17402 30.1845 0.833443 26.969 1.19986C23.4409 1.60608 19.5967 -0.086071 15.9279 0.314301C13.6624 0.56382 10.5726 -1.82805 10.0654 3.60255C8.55636 3.89249 7.04729 4.18238 5.14984 4.54566C5.29832 6.97433 5.42502 9.32754 5.60061 11.6759C5.63793 12.1762 5.99289 13.0956 5.95427 13.1177C2.83304 14.9811 4.34478 21.4264 1.54674 23.779C0.0250117 25.0576 -0.562068 29.9123 0.6511 31.5193C3.08343 34.7412 26.3249 38.8596 26.7069 42.4904C26.6814 42.525 26.6831 42.5544 26.7116 42.5755C26.7114 42.5472 26.7099 42.5188 26.7069 42.4904C27.0699 41.9963 32.9591 40.4298 45.4634 46.5903C52.8748 43.421 68.6376 49.5295 68.2178 48.9673C68.7317 48.129 85.368 50.363 85.6122 50.3906C90.8055 50.9572 96.042 52.0511 101.189 52.1328C107.891 52.2352 114.678 53.923 121.343 53.1017C124.529 52.7119 127.926 54.1103 131.278 54.0412C137.455 53.9111 143.842 55.6697 149.973 55.2676C160.507 54.5718 171.346 57.3845 181.725 55.2241C186.212 57.6553 190.488 55.3029 194.943 56.5791C196.144 56.9255 197.376 56.3153 198.606 56.2634C200.392 56.1865 202.184 56.1624 203.982 56.2125C211.222 56.4107 218.468 56.6788 225.705 56.8549C228.76 56.9257 231.793 56.6865 234.853 56.8401C243.493 57.2716 252.03 56.7118 260.608 56.5411C265.071 56.4512 269.629 57.4589 273.882 55.6735C279.1 58.1893 284.022 56.2735 289.076 56.4065C295.185 56.5653 301.268 56.3852 307.358 56.2948C315.223 56.1789 323.085 56.0299 330.943 55.8459C335.931 55.7266 340.916 55.5526 345.895 55.3412C351.933 55.0849 357.93 54.5193 363.996 54.4411C373.217 54.3191 382.353 53.328 391.516 52.637C402.956 51.7763 414.399 50.9334 425.819 49.9137C432.096 49.3531 438.34 48.52 444.579 47.6874L444.623 47.6816C452.073 46.6873 459.543 45.7788 466.933 44.4259C472.261 43.4488 477.493 42.0087 482.965 41.7886C484.301 41.7334 485.348 39.0846 487 37.0485C485.898 36.4691 485.204 35.8655 484.532 35.7934C482.509 35.5734 480.491 35.5608 478.103 35.4492C479.672 29.6522 485.434 33.8193 486.412 28.4616C484.924 28.1497 483.32 27.8153 481.715 27.481L481.714 27.4807C481.63 26.8975 481.544 26.3161 481.46 25.7329C482.348 25.2104 483.236 24.689 484.313 24.0567L485.136 23.5732C483.856 20.8663 482.606 18.2215 480.884 14.5876C479.073 14.5068 476.007 13.208 473.949 14.5762C471.452 16.2372 468.383 12.9231 466.278 16.107C465.731 16.9361 464.077 12.9918 463.084 15.6628C462.021 18.53 460.397 13.1233 459.367 15.5585C458.406 17.8319 456.574 15.0072 456.257 15.433C454.243 18.1115 451.66 15.4367 449.463 16.1049C447.121 16.8157 444.62 17.031 442.151 16.9259C439.948 16.8337 437.93 16.9568 436.078 18.5316C435.425 19.0891 433.955 19.2411 433.514 18.6024C432.042 16.4659 431.393 17.863 430.266 18.6288C429.456 19.1792 427.946 17.841 427.074 18.3226C426.059 18.8862 425.387 20.3384 424.367 17.9808C421.439 21.1469 416.947 15.6183 414.189 19.9533C413.92 20.3743 413.123 20.4351 412.671 20.164C407.388 16.9939 402.499 19.3639 397.448 19.369C390.088 19.3779 382.725 19.3605 375.375 19.4426C369.478 19.5089 363.572 19.5218 357.712 19.9184C354.598 20.1298 351.007 18.0522 348.508 21.8029C348.337 22.0615 347.731 22.0055 347.45 21.7508C341.813 16.6486 337.151 22.9412 331.828 21.5151C330.936 21.2744 329.98 21.8178 329.138 21.4047C321.636 17.7134 314.49 20.5735 307.12 19.5073C301.71 18.7254 296.339 19.4097 290.941 19.2924C284.241 19.1495 277.527 18.823 270.827 18.6501C270.151 18.6332 269.506 19.0785 268.871 19.3839C263.676 21.8875 257.947 20.1292 252.488 20.5561C251.285 20.6479 249.796 20.1443 248.707 19.1655C246.225 16.9333 243.595 17.5214 241.906 18.7584C240.109 20.0824 238.537 19.8732 236.715 19.691C233.129 19.3325 229.543 20.0361 225.974 17.4192C220.286 18.1335 214.426 17.2788 208.68 16.9361C203.948 16.651 199.209 17.7559 194.289 15.5845C191.059 14.1632 187.831 15.331 184.924 16.6567C183.711 17.2088 182.674 17.9416 181.359 17.4163C179.94 16.8522 178.448 15.4146 177.157 15.5632C175.742 15.7288 174.584 15.1805 173.228 14.735C169.419 13.4823 165.492 12.5707 162.358 16.2248C162.108 16.5163 161.757 16.7653 161.43 16.759C159.071 16.7052 156.705 16.9207 154.347 16.379C151.606 15.7547 148.744 16.3263 146.118 13.606C145.832 13.3095 145.368 13.3778 144.991 13.3438C141.868 13.0673 138.739 12.7336 135.624 12.5664C132.505 12.4003 129.426 11.0579 126.207 11.4323C123.264 11.7784 120.1 11.4202 117.049 11.5802C115.324 11.8076 113.275 13.1175 111.936 12.0539C107.883 8.8345 104.063 13.31 100.176 9.80497C96.6752 12.0811 92.6755 8.98886 89.0341 9.8035C88.0185 10.0313 86.8535 10.789 85.9842 10.239C81.2953 7.26236 76.6442 10.2478 72.0005 7.4118C69.0573 9.48672 65.9641 7.75642 62.788 6.84522C60.4016 6.15982 57.9437 7.20117 55.5195 7.47549C53.2799 3.94595 50.7679 6.53923 48.4238 5.40041Z" fill="#F59024"/>
</svg>
