<svg width="357" height="43" viewBox="0 0 357 43" fill="none" xmlns="http://www.w3.org/2000/svg">
<path d="M321.502 38.926C324.464 39.0445 327.357 39.6624 330.355 41.0847C332.518 42.1143 334.873 42.3713 337.23 42.0948C339.816 41.7884 342.634 43.0649 345.324 42.7629C346.985 42.5747 349.25 44.3791 349.621 40.2823C350.728 40.0636 351.834 39.8449 353.225 39.5708C353.116 37.7387 353.023 35.9634 352.894 34.1919C352.867 33.8145 352.607 33.1208 352.635 33.1042C354.923 31.6985 353.815 26.8362 355.866 25.0614C356.982 24.0969 357.412 20.4346 356.523 19.2223C354.74 16.7918 337.702 13.6849 337.422 10.9458C337.441 10.9197 337.44 10.8975 337.419 10.8816C337.419 10.903 337.42 10.9244 337.422 10.9458C337.156 11.3186 332.839 12.5003 323.673 7.85292C318.24 10.2438 306.685 5.63565 306.992 6.05973C306.616 6.69218 294.42 5.00683 294.241 4.98604C290.434 4.5586 286.595 3.7334 282.822 3.67176C277.909 3.59449 272.934 2.32129 268.048 2.94083C265.713 3.23488 263.223 2.17997 260.766 2.23206C256.237 2.33024 251.555 1.00354 247.061 1.30688C239.339 1.83181 231.393 -0.290062 223.785 1.33975C220.495 -0.494347 217.361 1.28027 214.095 0.317511C213.215 0.0562047 212.311 0.516574 211.41 0.555663C210.101 0.613703 208.787 0.631885 207.469 0.594076C202.162 0.444594 196.85 0.242307 191.544 0.109496C189.305 0.0560945 187.082 0.236536 184.839 0.12063C178.505 -0.204878 172.247 0.217463 165.959 0.346234C162.687 0.414013 159.346 -0.346138 156.228 1.0007C152.403 -0.897148 148.795 0.548082 145.09 0.447726C140.612 0.327961 136.153 0.463797 131.688 0.532014C125.922 0.619417 120.16 0.731834 114.399 0.87063C110.742 0.960652 107.089 1.09189 103.438 1.25139C99.0123 1.44472 94.6158 1.87142 90.169 1.93044C83.4097 2.02245 76.7122 2.77016 69.9953 3.29143C61.6092 3.94072 53.221 4.57657 44.8494 5.34583C40.2476 5.76872 35.6706 6.39724 31.097 7.02529L31.0649 7.02968C25.6039 7.77982 20.1279 8.46514 14.71 9.48574C10.8047 10.2229 6.96918 11.3092 2.95822 11.4753C1.97882 11.517 1.21076 13.5151 1.31581e-06 15.0512C0.807588 15.4882 1.31656 15.9436 1.80911 15.998C3.29224 16.164 4.77179 16.1735 6.52237 16.2577C5.37189 20.6308 1.14786 17.4872 0.431124 21.529C1.5217 21.7643 2.69788 22.0165 3.87409 22.2688L3.87509 22.269C3.93686 22.7089 3.99973 23.1475 4.06149 23.5875C3.41001 23.9816 2.75922 24.375 1.96988 24.852L1.36634 25.2168C2.30454 27.2588 3.22129 29.254 4.48374 31.9953C5.81107 32.0563 8.0586 33.0361 9.56745 32.004C11.3977 30.7509 13.6471 33.2511 15.1902 30.8491C15.5918 30.2237 16.8042 33.1992 17.5321 31.1843C18.3108 29.0213 19.5012 33.1 20.2565 31.2629C20.9612 29.5479 22.3039 31.6788 22.5368 31.3576C24.0128 29.337 25.9064 31.3548 27.5168 30.8507C29.2336 30.3145 31.067 30.1521 32.8773 30.2314C34.4923 30.3009 35.9712 30.2081 37.3289 29.0201C37.8077 28.5994 38.8851 28.4849 39.2083 28.9666C40.2877 30.5784 40.7632 29.5244 41.5891 28.9468C42.1829 28.5315 43.2903 29.541 43.9294 29.1777C44.6731 28.7526 45.1662 27.657 45.9136 29.4356C48.0602 27.0471 51.3529 31.2178 53.3748 27.9476C53.5718 27.63 54.1562 27.5841 54.4873 27.7886C58.3602 30.1801 61.9442 28.3922 65.6471 28.3884C71.0424 28.3816 76.4398 28.3947 81.8278 28.3328C86.1508 28.2828 90.4801 28.273 94.7761 27.9739C97.0588 27.8144 99.6908 29.3817 101.523 26.5522C101.649 26.3571 102.092 26.3994 102.299 26.5915C106.431 30.4405 109.848 25.6935 113.75 26.7693C114.404 26.9509 115.105 26.541 115.723 26.8526C121.222 29.6373 126.46 27.4797 131.863 28.284C135.829 28.8739 139.766 28.3576 143.723 28.4461C148.635 28.5539 153.556 28.8002 158.468 28.9307C158.963 28.9434 159.436 28.6075 159.902 28.3771C163.71 26.4884 167.91 27.8149 171.912 27.4928C172.793 27.4236 173.885 27.8034 174.683 28.5419C176.502 30.2258 178.43 29.7821 179.669 28.8489C180.986 27.8502 182.138 28.008 183.474 28.1454C186.103 28.4159 188.731 27.885 191.347 29.8592C195.518 29.3204 199.813 29.9652 204.025 30.2237C207.494 30.4387 210.968 29.6052 214.575 31.2433C216.942 32.3155 219.309 31.4345 221.44 30.4344C222.329 30.018 223.089 29.4652 224.053 29.8614C225.093 30.287 226.187 31.3715 227.133 31.2593C228.171 31.1345 229.02 31.548 230.013 31.8842C232.806 32.8291 235.685 33.5169 237.982 30.7603C238.165 30.5403 238.423 30.3525 238.662 30.3572C240.392 30.3979 242.126 30.2353 243.854 30.644C245.863 31.1149 247.962 30.6837 249.887 32.7359C250.096 32.9595 250.436 32.908 250.713 32.9336C253.003 33.1423 255.296 33.3939 257.58 33.5201C259.866 33.6454 262.123 34.6581 264.483 34.3757C266.64 34.1145 268.959 34.3848 271.196 34.2641C272.461 34.0925 273.963 33.1044 274.944 33.9067C277.915 36.3354 280.716 32.9591 283.565 35.6033C286.131 33.8862 289.063 36.2189 291.733 35.6044C292.477 35.4325 293.331 34.8609 293.968 35.2758C297.406 37.5214 300.815 35.2692 304.219 37.4086C306.377 35.8434 308.644 37.1487 310.973 37.8361C312.722 38.3531 314.524 37.5675 316.301 37.3606C317.943 40.0232 319.784 38.0669 321.502 38.926Z" fill="#F59024"/>
</svg>
