<svg width="796" height="90" viewBox="0 0 796 90" fill="none" xmlns="http://www.w3.org/2000/svg">
<path d="M79.1486 81.473C72.5445 81.7211 66.0937 83.0144 59.4102 85.9913C54.5884 88.1463 49.3365 88.684 44.0808 88.1055C38.3142 87.4641 32.0307 90.1359 26.0342 89.5037C22.3311 89.1098 17.2809 92.8864 16.4519 84.3118C13.9854 83.854 11.5188 83.3962 8.4174 82.8226C8.66009 78.9879 8.86718 75.2723 9.15417 71.5643C9.21517 70.7745 9.79536 69.3227 9.73224 69.2879C4.6306 66.3457 7.10154 56.1689 2.52814 52.4542C0.0408816 50.4354 -0.918698 42.77 1.06422 40.2327C5.03986 35.1455 43.028 28.6428 43.6523 22.9099C43.6107 22.8552 43.6135 22.8088 43.6601 22.7755C43.6598 22.8203 43.6572 22.865 43.6523 22.9099C44.2456 23.6901 53.8715 26.1635 74.3098 16.4363C86.4238 21.4405 112.188 11.7955 111.502 12.6832C112.342 14.0069 139.534 10.4794 139.933 10.4359C148.421 9.54125 156.98 7.81407 165.393 7.68507C176.347 7.52334 187.44 4.8585 198.335 6.15522C203.542 6.77066 209.095 4.56271 214.573 4.67174C224.67 4.87723 235.109 2.10041 245.131 2.73531C262.349 3.83399 280.064 -0.60713 297.029 2.80411C304.363 -1.0347 311.352 2.67962 318.634 0.664532C320.597 0.117611 322.611 1.08117 324.62 1.16299C327.54 1.28447 330.469 1.32252 333.407 1.24339C345.242 0.930517 357.085 0.507124 368.915 0.229148C373.908 0.117376 378.865 0.495045 383.866 0.25245C397.989 -0.428847 411.943 0.455122 425.964 0.72464C433.257 0.866503 440.708 -0.724512 447.659 2.09446C456.188 -1.87779 464.234 1.14711 472.494 0.937062C482.479 0.68639 492.422 0.970697 502.376 1.11348C515.232 1.29641 528.081 1.5317 540.926 1.82221C549.079 2.01062 557.225 2.28532 565.365 2.61915C575.233 3.02378 585.036 3.91688 594.951 4.04041C610.022 4.23299 624.955 5.79795 639.932 6.889C658.631 8.24797 677.334 9.57882 696 11.1889C706.26 12.074 716.466 13.3895 726.663 14.704L726.735 14.7132C738.911 16.2833 751.121 17.7177 763.201 19.8538C771.909 21.3966 780.461 23.6704 789.404 24.018C791.588 24.1052 793.3 28.2874 796 31.5024C794.199 32.4172 793.065 33.3702 791.966 33.4841C788.659 33.8315 785.36 33.8514 781.457 34.0276C784.022 43.1808 793.441 36.601 795.039 45.0606C792.607 45.5532 789.985 46.0811 787.362 46.609L787.36 46.6094C787.222 47.5303 787.082 48.4482 786.944 49.369C788.397 50.1941 789.848 51.0173 791.608 52.0157L792.954 52.7792C790.862 57.0532 788.818 61.2292 786.003 66.9669C783.043 67.0946 778.032 69.1452 774.668 66.985C770.587 64.3623 765.571 69.5952 762.131 64.5679C761.235 63.2588 758.532 69.4867 756.909 65.2693C755.173 60.7422 752.518 69.279 750.834 65.4339C749.263 61.8443 746.269 66.3044 745.75 65.6321C742.459 61.4029 738.237 65.6263 734.646 64.5712C730.818 63.4488 726.73 63.109 722.694 63.2749C719.093 63.4204 715.795 63.2262 712.768 60.7396C711.701 59.8592 709.298 59.6194 708.578 60.6278C706.171 64.0012 705.111 61.7953 703.269 60.5862C701.945 59.717 699.476 61.8299 698.051 61.0695C696.393 60.1798 695.293 57.8867 693.627 61.6093C688.841 56.6102 681.499 65.3395 676.991 58.4948C676.551 57.8301 675.249 57.7341 674.51 58.1621C665.875 63.1675 657.884 59.4254 649.627 59.4174C637.597 59.4032 625.563 59.4308 613.549 59.3012C603.91 59.1965 594.257 59.176 584.679 58.5499C579.589 58.2161 573.72 61.4965 569.636 55.5743C569.355 55.166 568.366 55.2545 567.906 55.6566C558.692 63.7127 551.073 53.777 542.372 56.0287C540.914 56.4089 539.351 55.5509 537.974 56.2032C525.713 62.0315 514.033 57.5155 501.986 59.199C493.144 60.4336 484.366 59.3531 475.542 59.5383C464.59 59.7639 453.616 60.2794 442.665 60.5525C441.562 60.5792 440.507 59.8761 439.469 59.3939C430.978 55.4407 421.613 58.2171 412.69 57.543C410.724 57.3981 408.291 58.1932 406.511 59.7388C402.454 63.2632 398.155 62.3346 395.395 60.3814C392.457 58.291 389.888 58.6213 386.91 58.9089C381.048 59.4751 375.187 58.364 369.355 62.496C360.056 61.3682 350.478 62.7178 341.088 63.2588C333.352 63.7089 325.606 61.9644 317.565 65.3929C312.286 67.6371 307.009 65.7931 302.258 63.6999C300.276 62.8283 298.58 61.6712 296.43 62.5006C294.112 63.3913 291.672 65.6612 289.563 65.4265C287.25 65.1651 285.357 66.0308 283.141 66.7343C276.914 68.7121 270.496 70.1516 265.374 64.3819C264.965 63.9216 264.391 63.5285 263.856 63.5384C260.001 63.6234 256.134 63.2831 252.28 64.1385C247.8 65.1241 243.121 64.2216 238.829 68.5169C238.362 68.985 237.604 68.8772 236.987 68.9308C231.882 69.3675 226.768 69.8943 221.677 70.1584C216.579 70.4205 211.546 72.5401 206.285 71.949C201.475 71.4025 196.303 71.9681 191.316 71.7155C188.496 71.3564 185.147 69.2882 182.959 70.9675C176.335 76.0508 170.09 68.9842 163.738 74.5185C158.015 70.9245 151.478 75.8071 145.526 74.5208C143.866 74.1611 141.962 72.9647 140.541 73.8331C132.877 78.5331 125.275 73.8193 117.685 78.2972C112.874 75.021 107.818 77.753 102.627 79.1918C98.7262 80.274 94.7088 78.6297 90.7465 78.1966C87.0859 83.7696 82.98 79.6749 79.1486 81.473Z" fill="#F59024"/>
</svg>
