<svg width="480" height="53" viewBox="0 0 480 53" fill="none" xmlns="http://www.w3.org/2000/svg">
<path d="M47.7278 47.9786C43.7454 48.1247 39.8555 48.8863 35.8253 50.6393C32.9176 51.9084 29.7506 52.225 26.5814 51.8843C23.104 51.5066 19.315 53.08 15.699 52.7078C13.466 52.4757 10.4207 54.6998 9.92074 49.6503C8.43338 49.3807 6.94599 49.1111 5.07582 48.7733C5.22217 46.5151 5.34704 44.327 5.5201 42.1434C5.55689 41.6783 5.90675 40.8233 5.86869 40.8029C2.79232 39.0702 4.28233 33.0772 1.52451 30.8897C0.0246522 29.7009 -0.553989 25.1868 0.641741 23.6926C3.03911 20.6968 25.9465 16.8674 26.323 13.4914C26.2979 13.4592 26.2996 13.4318 26.3277 13.4123C26.3275 13.4386 26.3259 13.465 26.323 13.4914C26.6808 13.9508 32.4853 15.4074 44.81 9.67917C52.1148 12.6261 67.651 6.94626 67.2373 7.46897C67.7438 8.2485 84.1409 6.1712 84.3816 6.14558C89.5003 5.61874 94.6615 4.60162 99.7346 4.52565C106.34 4.43041 113.029 2.86111 119.599 3.62474C122.739 3.98716 126.087 2.68693 129.391 2.75114C135.479 2.87214 141.774 1.23691 147.817 1.6108C158.2 2.2578 168.883 -0.357532 179.113 1.65131C183.536 -0.609326 187.75 1.578 192.141 0.391336C193.325 0.06926 194.539 0.636691 195.751 0.684871C197.512 0.756408 199.278 0.778819 201.05 0.732217C208.186 0.547971 215.328 0.29864 222.461 0.134943C225.472 0.0691217 228.461 0.291526 231.477 0.148665C239.993 -0.252544 248.408 0.268016 256.862 0.426732C261.261 0.510274 265.754 -0.426657 269.945 1.2334C275.088 -1.10581 279.94 0.675521 284.921 0.551826C290.942 0.404207 296.938 0.571633 302.94 0.655714C310.693 0.763442 318.441 0.902002 326.186 1.07308C331.103 1.18403 336.015 1.3458 340.924 1.54239C346.874 1.78067 352.786 2.30661 358.764 2.37935C367.852 2.49276 376.858 3.41435 385.889 4.05685C397.164 4.85714 408.442 5.64086 419.698 6.58901C425.886 7.11025 432.04 7.88494 438.189 8.65904L438.232 8.66446C445.575 9.58905 452.937 10.4337 460.222 11.6917C465.473 12.6002 470.63 13.9392 476.023 14.1439C477.339 14.1953 478.372 16.6582 480 18.5514C478.914 19.0901 478.23 19.6514 477.568 19.7184C475.573 19.923 473.584 19.9347 471.23 20.0385C472.777 25.4287 478.457 21.5539 479.42 26.5357C477.954 26.8257 476.373 27.1366 474.791 27.4475L474.79 27.4478C474.707 27.9901 474.622 28.5306 474.539 29.0729C475.415 29.5587 476.29 30.0435 477.351 30.6315L478.163 31.0811C476.901 33.598 475.669 36.0572 473.971 39.4361C472.187 39.5112 469.165 40.7189 467.136 39.4467C464.675 37.9022 461.651 40.9838 459.576 38.0233C459.036 37.2524 457.406 40.9199 456.427 38.4364C455.38 35.7704 453.78 40.7976 452.764 38.5333C451.817 36.4194 450.012 39.0459 449.698 38.65C447.714 36.1595 445.168 38.6466 443.003 38.0253C440.694 37.3643 438.229 37.1642 435.795 37.2619C433.624 37.3476 431.635 37.2332 429.81 35.7689C429.166 35.2504 427.717 35.1092 427.283 35.703C425.832 37.6896 425.192 36.3905 424.082 35.6785C423.284 35.1667 421.794 36.411 420.935 35.9632C419.935 35.4392 419.272 34.0888 418.267 36.281C415.381 33.3371 410.954 38.4777 408.236 34.447C407.971 34.0555 407.185 33.999 406.74 34.251C401.533 37.1986 396.714 34.995 391.735 34.9903C384.481 34.9819 377.224 34.9981 369.979 34.9218C364.167 34.8602 358.346 34.8481 352.57 34.4794C349.501 34.2828 345.962 36.2146 343.499 32.7271C343.33 32.4867 342.733 32.5387 342.456 32.7756C336.899 37.5197 332.305 31.6687 327.058 32.9947C326.179 33.2186 325.237 32.7133 324.407 33.0974C317.013 36.5296 309.97 33.8703 302.705 34.8616C297.373 35.5887 292.08 34.9524 286.759 35.0614C280.155 35.1943 273.538 35.4979 266.934 35.6587C266.268 35.6744 265.633 35.2604 265.006 34.9764C259.886 32.6484 254.239 34.2834 248.858 33.8864C247.673 33.8011 246.206 34.2693 245.132 35.1795C242.686 37.255 240.093 36.7082 238.429 35.558C236.657 34.3269 235.108 34.5214 233.313 34.6908C229.778 35.0242 226.243 34.3699 222.726 36.8032C217.119 36.1391 211.344 36.9338 205.681 37.2524C201.016 37.5175 196.345 36.4901 191.496 38.5091C188.313 39.8307 185.131 38.7448 182.266 37.5122C181.071 36.9989 180.048 36.3175 178.752 36.8059C177.354 37.3304 175.883 38.6671 174.611 38.5289C173.216 38.375 172.074 38.8848 170.738 39.2991C166.983 40.4638 163.113 41.3115 160.024 37.9138C159.778 37.6427 159.432 37.4112 159.109 37.4171C156.784 37.4671 154.452 37.2667 152.129 37.7704C149.427 38.3509 146.606 37.8194 144.018 40.3488C143.736 40.6245 143.279 40.561 142.907 40.5926C139.829 40.8497 136.745 41.16 133.675 41.3155C130.6 41.4699 127.565 42.7181 124.393 42.37C121.493 42.0481 118.374 42.3812 115.366 42.2325C113.666 42.021 111.647 40.8031 110.327 41.792C106.333 44.7855 102.567 40.624 98.7363 43.8831C95.2856 41.7667 91.3434 44.6419 87.7544 43.8845C86.7534 43.6726 85.6051 42.9681 84.7483 43.4795C80.1268 46.2473 75.5426 43.4713 70.9656 46.1083C68.0647 44.179 65.016 45.7879 61.8855 46.6351C59.5334 47.2724 57.1108 46.3042 54.7215 46.0491C52.5141 49.331 50.0382 46.9197 47.7278 47.9786Z" fill="#E28726"/>
</svg>
