<svg width="32" height="32" viewBox="0 0 32 32" fill="none" xmlns="http://www.w3.org/2000/svg">
<path d="M24.5414 9.37845C25.6018 9.37845 26.4614 8.51884 26.4614 7.45845C26.4614 6.39806 25.6018 5.53845 24.5414 5.53845C23.481 5.53845 22.6214 6.39806 22.6214 7.45845C22.6214 8.51884 23.481 9.37845 24.5414 9.37845Z" fill="#333333"/>
<path d="M15.9999 7.78381C14.3749 7.78381 12.7864 8.26567 11.4353 9.16846C10.0842 10.0712 9.03113 11.3544 8.40928 12.8557C7.78743 14.357 7.62473 16.0089 7.94175 17.6027C8.25876 19.1964 9.04126 20.6604 10.1903 21.8094C11.3393 22.9584 12.8033 23.7409 14.397 24.0579C15.9908 24.375 17.6427 24.2123 19.144 23.5904C20.6453 22.9686 21.9284 21.9155 22.8312 20.5644C23.734 19.2133 24.2159 17.6248 24.2159 15.9998C24.2159 13.8208 23.3503 11.731 21.8095 10.1902C20.2687 8.64942 18.1789 7.78381 15.9999 7.78381ZM15.9999 21.3331C14.945 21.3331 13.9139 21.0204 13.0368 20.4343C12.1598 19.8483 11.4762 19.0153 11.0725 18.0408C10.6689 17.0663 10.5632 15.9939 10.769 14.9593C10.9748 13.9248 11.4828 12.9745 12.2286 12.2286C12.9745 11.4827 13.9248 10.9747 14.9594 10.769C15.994 10.5632 17.0663 10.6688 18.0409 11.0725C19.0154 11.4761 19.8483 12.1597 20.4344 13.0368C21.0204 13.9138 21.3332 14.945 21.3332 15.9998C21.3332 17.4143 20.7713 18.7709 19.7711 19.771C18.7709 20.7712 17.4144 21.3331 15.9999 21.3331Z" fill="#333333"/>
<path d="M16 2.88267C20.272 2.88267 20.7787 2.89867 22.4653 2.976C23.4798 2.98804 24.4846 3.17431 25.436 3.52667C26.1262 3.79292 26.753 4.20073 27.2762 4.72384C27.7993 5.24695 28.2071 5.87378 28.4733 6.564C28.8257 7.51537 29.012 8.52021 29.024 9.53467C29.1013 11.2213 29.1173 11.728 29.1173 16.0013C29.1173 20.2747 29.1013 20.7787 29.024 22.4653C29.012 23.4798 28.8257 24.4846 28.4733 25.436C28.2071 26.1262 27.7993 26.753 27.2762 27.2762C26.753 27.7993 26.1262 28.2071 25.436 28.4733C24.4846 28.8257 23.4798 29.012 22.4653 29.024C20.7787 29.1013 20.272 29.1173 16 29.1173C11.728 29.1173 11.2213 29.1013 9.53467 29.024C8.52021 29.012 7.51537 28.8257 6.564 28.4733C5.87378 28.2071 5.24695 27.7993 4.72384 27.2762C4.20073 26.753 3.79292 26.1262 3.52667 25.436C3.17431 24.4846 2.98804 23.4798 2.976 22.4653C2.89867 20.7787 2.88267 20.272 2.88267 16C2.88267 11.728 2.89867 11.2213 2.976 9.53467C2.98804 8.52021 3.17431 7.51537 3.52667 6.564C3.79292 5.87378 4.20073 5.24695 4.72384 4.72384C5.24695 4.20073 5.87378 3.79292 6.564 3.52667C7.51537 3.17431 8.52021 2.98804 9.53467 2.976C11.2213 2.89867 11.728 2.88267 16 2.88267ZM16 0C11.6547 0 11.1093 0.0186667 9.40267 0.096C8.0757 0.122795 6.76288 0.374359 5.52 0.84C4.45697 1.25106 3.49154 1.8797 2.68562 2.68562C1.8797 3.49154 1.25106 4.45697 0.84 5.52C0.374211 6.7633 0.122644 8.07658 0.096 9.404C0.0186667 11.1107 0 11.6533 0 16C0 20.3467 0.0186667 20.8907 0.096 22.5973C0.122795 23.9243 0.374359 25.2371 0.84 26.48C1.25106 27.543 1.8797 28.5085 2.68562 29.3144C3.49154 30.1203 4.45697 30.7489 5.52 31.16C6.7633 31.6258 8.07658 31.8774 9.404 31.904C11.1107 31.9813 11.6547 32 16 32C20.3453 32 20.8907 31.9813 22.5973 31.904C23.9248 31.8774 25.238 31.6258 26.4813 31.16C27.5444 30.7489 28.5098 30.1203 29.3157 29.3144C30.1216 28.5085 30.7503 27.543 31.1613 26.48C31.6267 25.2366 31.8778 23.9233 31.904 22.596C31.9813 20.8893 32 20.3467 32 16C32 11.6533 31.9813 11.1093 31.904 9.40267C31.8772 8.0757 31.6256 6.76288 31.16 5.52C30.7489 4.45697 30.1203 3.49154 29.3144 2.68562C28.5085 1.8797 27.543 1.25106 26.48 0.84C25.2366 0.374666 23.9233 0.123551 22.596 0.0973333C20.8893 0.0173333 20.3467 0 16 0Z" fill="#333333"/>
</svg>
