<svg width="50" height="92" viewBox="0 0 50 92" fill="none" xmlns="http://www.w3.org/2000/svg">
<path fill-rule="evenodd" clip-rule="evenodd" d="M25.5839 87.9338C21.6842 92.5191 18.3478 92.7844 14.9501 90.0173C10.3851 86.2992 5.77326 82.5812 1.66135 78.3937C0.345124 77.051 0.545108 74.2206 0.0512695 72.0718C3.14082 71.7779 7.4017 70.0536 9.10565 71.4514C15.0174 76.2959 20.0395 82.2261 25.5839 87.9338Z" fill="#E28726"/>
<path fill-rule="evenodd" clip-rule="evenodd" d="M49.7679 54.9287C38.3402 59.912 30.4286 51.5555 21.362 48.3211C20.5314 48.0231 19.6336 45.0764 19.9968 44.7581C21.7966 43.1786 24.7046 40.4931 25.9596 41.0482C33.9263 44.5765 41.5665 48.8455 49.2802 52.935C49.5842 53.0962 49.5373 53.9186 49.7679 54.9287Z" fill="#E28726"/>
<path fill-rule="evenodd" clip-rule="evenodd" d="M47.7011 0.151855C46.8338 2.12109 46.7073 3.16998 46.1196 3.62505C39.965 8.37161 33.892 13.2508 27.4353 17.5525C25.6028 18.7728 22.597 18.2341 19.9666 17.5892C28.0598 10.1572 35.3266 2.01497 47.7011 0.151855Z" fill="#E28726"/>
</svg>
