<svg width="100" height="120" viewBox="0 0 100 120" fill="none" xmlns="http://www.w3.org/2000/svg">
<path fill-rule="evenodd" clip-rule="evenodd" d="M65.9795 48.3284C65.9307 48.3364 65.8816 48.3441 65.8328 48.3521C65.8012 49.1634 65.8303 49.9831 65.7203 50.7834C65.6104 51.581 65.5305 52.3684 65.5436 53.2224C65.892 52.9616 66.0914 52.7168 66.0963 52.3417C66.1033 51.7714 66.2763 51.2053 66.1335 50.6312C66.3979 50.2518 66.0054 49.8922 66.1116 49.48C66.2015 49.1305 66.0333 48.7148 65.9795 48.3284ZM91.2386 85.6239C91.0366 85.315 90.8964 85.1797 90.8522 85.018C90.7188 84.532 90.6009 84.0533 90.3899 83.5817C90.1783 83.109 89.9484 82.6411 89.7523 82.167C89.4581 81.4561 88.954 80.8202 88.8911 80.0158C88.8902 80.0005 88.811 79.9917 88.7453 79.9737C88.7679 80.8234 89.2018 81.5317 89.4513 82.2953C89.6167 82.802 89.797 83.3004 90.0352 83.7796C90.0973 83.9051 90.0312 84.094 90.0218 84.3014C90.0844 84.34 90.2224 84.3997 90.3209 84.4989C90.3563 84.5347 90.2517 84.707 90.2876 84.745C90.3845 84.8475 90.5641 84.8867 90.6306 84.9988C90.684 85.0888 90.6197 85.2488 90.6031 85.4315C90.7215 85.4675 90.888 85.5176 91.2386 85.6239ZM45.1266 103.62C45.3715 104.079 45.5428 104.539 45.8337 104.904C46.1333 105.281 46.386 105.722 46.8294 105.899C46.7829 106.119 46.7509 106.267 46.6858 106.573C47.0514 106.161 47.3296 106.132 47.6304 106.389C47.7599 106.5 47.9875 106.558 48.0359 106.69C48.1822 107.088 48.3816 106.813 48.6365 106.788C47.921 106.316 47.4964 105.65 47.0121 105.053C46.5295 104.459 45.9056 104.06 45.3416 103.578C45.3152 103.556 45.2335 103.597 45.1266 103.62ZM66.9259 66.6636C66.9458 66.2447 66.6706 65.8387 66.8822 65.4246C66.6679 64.7179 67.0209 63.986 66.7877 63.2799C67.0126 62.9538 66.7184 62.6131 66.8015 62.3014C66.9742 61.6527 66.7504 60.9974 66.8767 60.351C66.8895 60.286 66.765 60.1943 66.7047 60.1146C66.6448 60.1882 66.5571 60.2525 66.5296 60.3363C66.3191 60.9814 66.3124 61.6591 66.2157 62.3229C66.1293 62.9131 66.032 63.517 66.0907 64.0914C66.1803 64.9742 66.4337 65.8401 66.6207 66.7279L66.9259 66.6636ZM83.666 37.3521C83.5826 36.9559 83.4217 36.556 83.437 36.1635C83.4528 35.7684 82.8764 35.5425 83.1919 35.1085C82.7861 34.8801 82.9407 34.435 82.8045 34.1024C82.6684 33.7703 82.5318 33.4374 82.4153 33.0976C82.2334 32.5665 82.1612 31.9701 81.8673 31.5143C81.6313 31.1493 81.6835 30.7255 81.471 30.4177C81.2134 30.0437 81.154 29.6389 81.0648 29.2294C81.0106 28.9798 80.8753 28.7776 80.7659 28.5566C80.6293 28.2813 80.4293 28.078 80.255 27.8448C80.6643 27.5437 79.784 27.2917 80.2224 26.9897C80.1439 26.8833 80.0779 26.7642 79.9837 26.6747C79.8907 26.5861 79.707 26.5494 79.8837 26.3773C79.7943 26.29 79.7052 26.2029 79.6222 26.1217C79.4287 26.3122 79.2523 26.4856 79.0523 26.6824C79.2894 26.8002 79.4842 26.9613 79.6956 26.9866C80.0124 27.0241 79.8051 27.1365 79.7679 27.2338C80.0925 27.3515 79.8808 27.6268 79.9485 27.8146C80.0139 27.9961 79.9913 28.1906 80.0705 28.358C80.2015 28.6361 80.1993 29.0412 80.6727 29.0335C80.5636 29.1161 80.4626 29.1931 80.3538 29.2756C80.7251 29.4458 80.599 29.723 80.5321 30.0027C80.7037 29.9928 80.8656 29.9836 81.0769 29.9712C81.063 30.1698 81.0438 30.3291 81.0433 30.4887C81.0433 30.5867 81.0377 30.714 81.0926 30.7788C81.4637 31.2186 81.7735 31.7686 81.8672 32.2059C81.9222 32.4623 81.9003 32.7769 82.0441 32.9638C82.4008 33.427 82.4406 33.9349 82.43 34.4741C82.4288 34.5324 82.4547 34.6304 82.4917 34.6443C82.7914 34.7531 82.8189 35.0157 82.8708 35.2701C82.97 35.7551 83.067 36.2408 83.1806 36.7224C83.2131 36.8597 83.3845 37.0205 83.347 37.1083C83.2138 37.4201 83.559 37.2953 83.666 37.3521ZM39.5709 48.8625C39.5329 48.8751 39.495 48.888 39.457 48.9006C39.5033 49.1202 39.5721 49.3383 39.5894 49.5604C39.6071 49.7873 39.5744 50.0183 39.5585 50.3689C39.6913 50.1938 39.7393 50.1307 39.835 50.0047C40.0194 50.4635 40.1682 50.8997 40.3659 51.3125C40.6845 51.9763 41.0143 52.6338 41.2844 53.3206C41.4256 53.6801 41.6714 53.9992 41.6999 54.4024C42.1229 54.5984 41.9081 55.1108 42.2271 55.4184C42.4962 55.6772 42.5182 56.1817 42.6845 56.5621C42.8636 56.9726 43.0888 57.3635 43.123 57.8235C43.459 58.0079 43.2981 58.4618 43.4952 58.6342C43.8126 58.9124 43.7113 59.2728 43.8506 59.5721C43.907 59.6935 43.9875 59.8037 44.0515 59.9223C44.1799 60.1603 44.3584 60.3874 44.4196 60.6422C44.558 61.2152 44.9216 61.6772 45.1358 62.212C45.2229 62.4299 45.4799 62.5798 45.7424 62.8447C45.7232 62.6289 45.7453 62.5269 45.7041 62.4697C45.3047 61.9111 45.0462 61.2608 44.8253 60.6409C44.4621 59.6238 43.7928 58.7325 43.6214 57.6448C43.2176 57.3668 43.3395 56.8383 43.0458 56.4732C42.7827 56.1463 42.8061 55.5946 42.5542 55.2512C42.3199 54.932 42.3325 54.564 42.1525 54.2553C41.4377 53.0308 40.9427 51.7008 40.3171 50.4333C40.0608 49.9136 39.8194 49.3862 39.5709 48.8625ZM59.9816 36.6181C59.5571 36.7383 59.6061 37.0022 59.7052 37.2857C59.8099 37.5853 59.9296 38.2347 59.8648 38.4921C59.8246 38.6526 59.8095 38.7426 59.9491 38.8501C60.3413 39.1541 59.8498 39.1613 59.7794 39.3278C59.9076 39.3581 60.033 39.3874 60.1919 39.4247C60.1122 39.8553 59.9909 40.2671 60.0196 40.7207C60.0394 41.0264 60.3099 41.2234 60.2389 41.5211C60.228 41.5659 60.1916 41.6044 60.1704 41.6407C60.0947 41.6016 60.0277 41.5668 59.9347 41.5186C59.8065 41.9463 60.2189 41.7667 60.2699 41.8363L60.4371 42.6306C60.3195 42.7002 60.2384 42.7478 60.1621 42.793C60.3427 42.9446 60.4896 43.068 60.6648 43.2156C60.5219 43.3862 60.4109 43.5187 60.3179 43.6293C60.6656 43.9676 60.6948 44.3507 60.6693 44.7521C60.6651 44.813 60.6709 44.9264 60.689 44.9298C61.1233 45.0149 60.9805 45.4958 61.2373 45.7785C61.5507 45.0668 61.1117 44.4853 61.1117 43.757C61.1518 43.7139 61.2648 43.5911 61.3656 43.4818C61.0676 43.059 61.0193 43.0459 61.0861 42.7763C61.161 42.4726 60.8502 42.33 60.8806 42.0526C60.9128 41.7546 60.8898 41.4492 60.8694 41.1485C60.8649 41.0849 60.7571 41.0336 60.7143 40.9656C60.6727 40.899 60.6226 40.8152 60.6297 40.7446C60.6601 40.4502 60.7113 40.158 60.7545 39.8652C60.3814 39.6289 60.6148 39.2875 60.5926 38.9875C60.5855 38.893 60.4816 38.8071 60.4272 38.714C60.3866 38.644 60.3064 38.5242 60.3266 38.5023C60.5514 38.2581 60.2655 37.9566 60.3728 37.7741C60.5673 37.4435 60.2316 37.2528 60.2529 37.057C60.3398 36.2514 59.9652 35.5394 59.8934 34.7738C59.8715 34.5409 59.8655 34.3066 59.8509 34.0538C59.7888 34.0702 59.6694 34.0665 59.6437 34.1138C59.5051 34.3658 59.8437 34.6686 59.5742 34.9275C59.5638 34.9373 59.7128 35.0831 59.7503 35.1801C59.7851 35.2694 59.8165 35.4168 59.7701 35.4721C59.402 35.9113 59.6833 36.2501 59.9816 36.6181ZM89.2745 97.0854C89.8332 96.2332 90.3393 95.497 90.5991 94.616C90.9612 93.3876 91.0583 92.1526 90.834 90.8901C90.7986 90.6908 90.9083 90.4135 90.8073 90.2899C90.6124 90.0508 90.5704 89.8654 90.7351 89.6145C90.7557 89.583 90.726 89.4729 90.6931 89.4586C90.3871 89.3232 90.4209 89.0215 90.3961 88.7856C90.3242 88.097 89.9199 87.5368 89.7374 86.8911C89.7 87.1414 89.6412 87.3989 89.7032 87.623C89.762 87.837 89.7016 88.0358 89.7364 88.2365C89.7817 88.494 89.8498 88.7473 89.8938 89.0047C89.9317 89.2264 90.0014 89.461 89.962 89.6721C89.922 89.887 90.0563 90.0516 90.0102 90.2825C89.9302 90.6836 90.2595 91.0651 90.1191 91.5337C89.9993 91.934 90.4456 92.4216 89.9931 92.8182C90.1588 92.9016 90.2432 93.0382 90.2473 93.2211C90.2532 93.5088 89.7143 94.9295 89.474 95.1884C89.2938 95.383 89.3981 95.7522 89.0581 95.8365C89.09 96.0611 89.1183 96.2858 89.1546 96.5095C89.1775 96.6508 89.2124 96.7902 89.2745 97.0854ZM35.7138 71.6951C35.7572 71.9772 35.734 72.1705 35.8154 72.2958C36.1076 72.7467 36.4318 73.1771 36.7516 73.6097C36.8321 73.7185 36.9597 73.7936 37.034 73.9054C37.2276 74.1965 37.2869 74.5899 37.6266 74.767C37.9398 74.9304 37.696 75.5682 38.2649 75.4897C38.5806 76.217 39.1994 76.7521 39.5441 77.4445C39.7587 77.8757 40.1856 78.1308 40.3339 78.5674C40.5832 79.3021 41.3504 79.7264 41.4766 80.528C41.4827 80.5663 41.5799 80.5829 41.6154 80.6255C41.8743 80.937 42.2319 81.2162 42.3561 81.5756C42.5062 82.0086 42.9878 82.222 43.0067 82.7068C43.0071 82.7195 43.0881 82.729 43.1307 82.74C43.1725 82.5264 43.2131 82.321 43.2569 82.1008C43.1078 82.0791 43.0016 82.0635 42.885 82.0464C42.8169 81.8055 42.7741 81.5492 42.671 81.3196C42.567 81.0883 42.2566 80.8496 42.2975 80.6752C42.371 80.3616 42.0315 80.3083 42.0423 80.0344C42.0493 79.8544 41.7977 79.5837 41.5984 79.493C41.259 79.3387 41.5376 78.8898 41.3511 78.8816C40.8644 78.8606 41.16 78.4671 41.0054 78.3057C40.8374 78.1301 40.6798 77.9432 40.5306 77.7515C40.3654 77.5392 40.2162 77.3148 40.0572 77.0979C39.9139 76.9027 39.7548 76.718 39.6236 76.5153C39.4771 76.2893 39.3679 76.0384 39.2163 75.8165C39.0799 75.6165 38.9085 75.4403 38.7514 75.2545C38.5944 75.0691 38.4314 74.8878 38.2785 74.6986C38.1095 74.4888 37.9422 74.2773 37.7874 74.0573C37.6481 73.8596 37.5466 73.6326 37.3925 73.4485C37.2342 73.2601 37.0218 73.1177 36.8533 72.9366C36.6699 72.7394 36.5177 72.5133 36.3374 72.3134C36.1715 72.1291 35.9858 71.9631 35.7138 71.6951ZM26.7029 89.0609C26.4911 88.5606 26.2936 88.27 26.2559 87.9602C26.2094 87.5729 26.0325 87.2449 25.8306 86.9706C25.5048 86.5278 25.2796 86.0402 25.023 85.5668C24.6095 84.8043 24.2187 84.0299 23.8182 83.2605C23.4662 82.5827 22.9679 81.9731 22.846 81.1873C22.4556 80.7925 22.5507 80.13 22.0302 79.7789C21.8377 79.6488 21.8181 79.2834 21.671 79.0565C21.5914 78.9334 22.0206 78.7283 21.6178 78.7306C21.2229 78.7328 21.6436 78.4968 21.5083 78.4329C21.0369 78.2105 20.8764 77.7502 20.7135 77.3173C20.5099 76.777 20.1193 76.3502 19.8883 75.8163C19.7038 75.3913 19.5313 74.9162 19.19 74.5399C18.9797 74.3083 18.8622 73.971 18.7665 73.6613C18.4979 72.7903 18.0193 72.0157 17.63 71.2046C17.2038 70.3164 16.8618 69.3935 16.4243 68.5126C16.5404 68.2362 16.0265 68.1013 16.2636 67.7975C16.1031 67.5846 15.9201 67.3843 15.7879 67.1549C15.6506 66.9168 15.6701 66.6375 15.5073 66.3701C15.084 65.6759 14.782 64.9077 14.438 64.1656C14.2078 63.6699 14.0058 63.1601 13.7599 62.6723C13.492 62.142 13.1025 61.6582 12.9185 61.1036C12.5866 60.1029 12.1109 59.1602 11.7767 58.1718C11.4684 57.2617 11.0815 56.361 10.9696 55.383C10.9071 54.8356 10.7599 54.2969 10.6322 53.7586C10.5824 53.5473 10.5074 53.3482 10.3966 53.1438C10.2008 52.7821 10.12 52.3237 10.1101 51.9032C10.0934 51.1876 9.87081 49.827 9.55666 49.1053C9.50954 49.2892 9.37834 49.5016 9.43021 49.6499C9.66188 50.3113 9.54319 51.0017 9.65061 51.6736C9.97554 53.7007 10.7076 55.6259 11.0965 57.6348C11.1183 57.7475 11.1232 57.8769 11.1831 57.9668C11.6632 58.6861 11.8453 59.5323 12.1882 60.3096C12.257 60.4652 12.2639 60.6305 12.4483 60.7233C12.6769 60.8384 12.1909 61.1019 12.512 61.1938C12.97 61.3247 12.7115 61.8909 13.0899 62.0887C13.1761 62.1338 13.1147 62.4537 13.13 62.6464C13.1346 62.7008 13.1554 62.7718 13.1943 62.8022C13.4858 63.0288 13.4878 63.0261 13.3817 63.3921C13.537 63.5334 13.8889 63.5664 13.6692 63.9138C13.9796 64.1901 13.8924 64.7359 14.3516 64.919C14.4067 64.9412 14.4701 65.107 14.4525 65.1242C14.2543 65.311 14.4505 65.3795 14.5317 65.5085C14.6328 65.6693 14.6389 65.8928 14.7477 66.0455C15.1195 66.5664 15.4475 67.108 15.5391 67.7486C15.5743 67.9967 15.715 68.1499 15.849 68.3241C15.9834 68.4989 16.1599 68.6462 16.1514 68.9016C16.142 69.1788 16.4861 69.3864 16.317 69.7002C16.7412 69.9909 16.7385 70.5291 16.9983 70.8963C17.6038 71.7523 17.707 72.8524 18.4003 73.6538C18.4994 74.2086 18.8524 74.6558 19.0452 75.1604C19.226 75.6347 19.6034 76.0283 19.6098 76.5911C19.6124 76.8274 19.8195 77.0934 19.9978 77.2869C20.195 77.5002 20.0741 77.8222 20.3703 78.0258C20.5816 78.1707 20.566 78.7126 20.7657 78.7931C21.1702 78.9556 20.7038 79.3483 21.0315 79.4516C21.3557 80.2974 22.1373 80.8552 22.4526 81.7071C22.8719 81.8112 22.8351 82.2274 23.0008 82.5057C23.1809 82.8086 23.4315 83.07 23.5032 83.4355C23.53 83.5718 23.635 83.6912 23.6673 83.8272C23.7044 83.98 23.6572 84.1638 23.7228 84.2962C23.8424 84.5373 24.2963 84.6128 24.0721 85.0246C24.2646 85.2327 24.4714 85.4303 24.6454 85.6531C24.7772 85.8216 24.8271 86.0726 24.9838 86.1991C25.3115 86.4626 25.1653 86.9318 25.4251 87.1686C25.744 87.4599 25.5313 87.906 25.8493 88.1451C26.2185 88.2773 26.2366 88.7397 26.7029 89.0609ZM43.6806 111.333C43.4362 111.213 43.1308 111.529 43.0592 111.105C43.0533 111.071 42.7386 111.126 42.5942 111.07C42.1357 110.895 41.6738 110.755 41.1842 110.691C41.0271 110.67 40.8698 110.557 40.7375 110.455C40.1487 109.998 39.548 109.564 38.8174 109.361C38.7151 109.333 38.8181 108.87 38.5305 109.231C38.4925 109.279 38.2969 109.178 38.1798 109.193C37.8572 109.234 37.5678 109.157 37.3208 108.961C37.197 108.864 37.1007 108.722 37.0168 108.585C36.8201 108.262 36.6722 107.904 36.4431 107.607C35.7476 106.708 35.2181 105.705 34.6026 104.756C34.3827 104.417 34.2052 104.05 33.995 103.703C33.7857 103.358 33.5229 103.04 33.3492 102.679C33.0895 102.138 32.7556 101.652 32.4208 101.159C32.1031 100.692 31.852 100.179 31.5658 99.6892C30.9806 98.6871 30.4397 97.654 29.7847 96.6996C29.4214 96.171 29.3259 95.571 29.0695 95.0208C29.054 94.9877 29.0809 94.9349 29.0884 94.8914C28.632 95.0248 28.6951 94.5575 28.5717 94.3807C28.0773 93.6759 27.6744 92.9089 27.2042 92.185C27.0641 91.9694 27.071 91.965 27.1781 91.5788C27.051 91.5417 26.8336 91.5331 26.8117 91.4633C26.5874 90.7511 25.9435 90.2482 25.8345 89.4796C25.8216 89.3906 25.6946 89.3194 25.624 89.2363C25.5368 89.1334 25.3922 89.0348 25.3778 88.9212C25.2761 88.1101 24.6373 87.592 24.3046 86.9083C24.1044 86.4973 23.9938 86.0406 23.6351 85.6985C23.512 85.5806 23.5611 85.2816 23.5134 84.929C23.0726 84.7168 22.75 84.235 22.6411 83.6102C22.6309 83.5527 22.6367 83.4761 22.6023 83.4418C21.8291 82.6794 21.714 81.5213 20.9803 80.7316C20.9243 80.671 21.008 80.4804 21.0299 80.3293C20.5361 80.1142 20.3041 79.6582 20.0832 79.1582C19.8325 78.5912 19.5088 78.0546 19.1932 77.5188C18.7655 76.7931 18.3521 76.0621 18.0241 75.284C17.9196 75.0367 17.7539 74.816 17.6324 74.575C17.5293 74.3716 17.5432 74.0971 17.346 73.9568C16.9894 73.7026 17.2356 73.1541 16.8212 72.9429C16.7687 72.4524 16.3372 72.1439 16.2118 71.6995C16.0822 71.2396 15.7551 70.8655 15.6307 70.4409C15.4258 69.7388 15.0398 69.1288 14.7717 68.4638C14.5318 67.8689 14.3762 67.2062 13.9284 66.7009C13.6476 65.6271 12.9204 64.7627 12.5439 63.7291C12.3682 63.2465 12.0778 62.8054 11.8702 62.3269C11.7622 62.0783 11.6345 61.833 11.5665 61.5642C11.545 61.4793 11.5599 61.3527 11.5072 61.314C11.0563 60.9804 10.9615 60.485 10.8717 59.984C10.5579 59.8611 10.6504 59.5461 10.5546 59.3195C10.4592 59.0939 10.297 58.8866 10.2467 58.6538C9.96224 57.3357 9.46547 56.0781 9.21278 54.7458C9.00069 53.6281 8.46237 52.5699 8.37532 51.4252C8.27699 50.1367 7.97223 48.8528 8.24585 47.543C8.37478 46.9262 8.50517 46.3303 8.77037 45.746C9.02155 45.1932 9.33486 44.6911 9.66653 44.1954C10.0253 43.6586 10.5034 43.2611 11.1265 43.0401C11.3786 42.9507 11.6148 42.8043 11.8404 42.6559C12.2117 42.4119 12.6201 42.262 13.02 42.0825C13.5479 41.8452 14.0932 41.7415 14.6348 41.5878C15.2698 41.4076 15.9023 41.6106 16.5355 41.5653C16.6139 41.5596 16.7065 41.7505 16.7408 41.7901C16.9104 41.7416 17.0594 41.648 17.1825 41.6738C17.4733 41.7355 17.7535 41.8495 18.0347 41.9511C18.2666 42.0353 18.5111 42.104 18.7187 42.231C18.9482 42.3717 19.1235 42.6038 19.3565 42.7349C19.5639 42.8518 19.8543 42.8335 20.0431 42.9664C20.3516 43.1835 20.486 43.5884 20.8535 43.7717C20.99 43.8393 21.0564 44.0412 21.1908 44.1181C21.5659 44.3324 21.7814 44.7011 22.0835 44.9716C22.3586 45.2174 22.3552 45.6322 22.7685 45.8024C23.0928 45.9359 23.3081 46.3207 23.59 46.5733C23.8826 46.835 24.237 47.0369 24.4944 47.3273C25.1149 48.0291 25.9502 48.5075 26.4954 49.2842C26.5575 49.3723 26.6507 49.5004 26.7328 49.5031C27.3191 49.5209 27.5194 50.1002 27.9616 50.3193C27.9731 50.598 28.1479 50.5412 28.3274 50.5099C28.3963 50.4981 28.5099 50.5226 28.5448 50.5716C28.8545 51.0093 29.3291 51.1643 29.7872 51.3797C30.1326 51.5419 30.3974 51.8691 30.7125 52.1035C30.9692 52.2945 31.2302 52.496 31.5206 52.621C31.7962 52.7399 31.8624 53.1492 32.2354 53.1015C32.2536 53.5769 32.7926 53.4762 32.9663 53.7581C33.1581 54.0682 33.5769 54.0053 33.7753 54.3668C33.9239 54.6369 34.3327 54.7644 34.6255 54.9554C34.943 55.1624 35.2602 55.3695 35.5844 55.5807C35.6323 55.5156 35.6804 55.4501 35.7284 55.3853C35.7546 55.5255 36.1241 55.3992 35.9727 55.7148C35.934 55.7954 36.0522 56.0237 36.1571 56.0881C36.5514 56.3298 36.8501 56.7341 37.3126 56.8441C37.6416 56.9222 37.7358 57.1939 37.9385 57.3783C38.3154 57.7213 38.803 57.9429 39.248 58.2096C39.2893 58.2346 39.3924 58.2015 39.4036 58.2247C39.8165 59.1153 40.864 59.1234 41.4814 59.7237C41.7763 60.0102 42.0589 60.3097 42.3539 60.6106C42.4827 60.3139 42.6688 60.3107 42.891 60.4713C42.9054 60.4136 42.9429 60.3523 42.9275 60.3103C42.8043 59.9726 42.7582 59.5433 42.52 59.3268C42.1884 59.0248 42.3084 58.5942 42.0335 58.277C41.7774 57.9817 41.7008 57.529 41.551 57.1431C41.4106 56.7812 41.33 56.3844 41.1314 56.0589C40.6313 55.2397 40.4435 54.281 39.9041 53.4743C39.6482 53.0931 39.5861 52.585 39.421 52.1398C39.3258 51.884 39.2544 51.5852 39.0735 51.4044C38.867 51.1989 38.903 50.8922 38.7505 50.7467C38.5566 50.5618 38.5498 50.3549 38.4641 50.1518C38.2414 49.6231 38.0184 49.0915 37.75 48.5855C37.2887 47.7158 36.7894 46.8663 36.5052 45.9148L36.0918 45.2834C35.6932 45.0069 35.7169 44.5049 35.4903 44.1304C35.2905 43.8009 34.9315 43.4886 35.079 43.013C35.0952 42.9604 35.0798 42.8765 35.0456 42.8339C34.4804 42.1257 33.8462 40.9904 33.6261 40.2701C33.6145 40.2319 33.6515 40.154 33.6368 40.1453C33.121 39.8487 33.2645 39.1721 32.8652 38.8113C32.7435 37.9084 32.0843 37.1957 31.9709 36.2882C31.9584 36.1883 31.8763 36.0955 31.8197 36.0029C31.5739 35.598 31.3205 35.1986 31.2831 34.7052C31.2632 34.4489 31.1445 34.24 30.9776 34.0337C30.8254 33.8462 30.9189 33.5605 30.709 33.3338C30.432 33.0344 30.4541 32.5701 30.2522 32.187C29.853 31.4301 29.6255 30.5826 29.3327 29.7712C29.084 29.0818 28.7746 28.4056 28.4525 27.7398C28.2495 27.3203 28.1521 26.8497 27.938 26.426C27.717 25.9877 27.6182 25.4921 27.3158 25.089C27.268 25.0253 27.2635 24.928 27.2441 24.8449C27.1558 24.4632 27.0688 24.0965 26.8547 23.7426C26.6607 23.4217 26.7648 22.9513 26.427 22.6634C26.2589 21.865 26.0945 21.0655 25.9213 20.2682C25.79 19.6645 25.7433 19.0791 25.8249 18.444C25.899 17.8626 25.8445 17.246 25.8633 16.6429C25.8915 15.7468 25.9436 14.8539 26.1318 13.9802C26.2088 13.6239 26.1501 13.2608 26.23 12.9308C26.4477 12.0295 26.8537 11.2318 27.7393 10.7711C28.0647 10.602 28.3779 10.4417 28.7468 10.3814C29.264 10.2967 29.7822 10.1981 30.2857 10.0564C30.9494 9.86944 31.6394 9.92563 32.2626 10.049C33.8437 10.3618 35.3826 10.8522 36.5528 12.0751C37.0096 12.0474 37.0424 12.5175 37.3054 12.7196C37.5685 12.9221 37.8065 13.1573 38.0531 13.3809C38.2467 13.5567 38.2299 13.7804 38.1774 14.0244C38.49 14.0664 38.6827 14.2584 38.9118 14.4657C39.276 14.7949 39.2735 15.3042 39.6741 15.6277C40.0067 15.8971 40.1566 16.3973 40.499 16.715C40.3382 17.1339 41.0044 17.1594 40.8978 17.5523C41.2989 17.7211 41.0362 18.2892 41.3355 18.4083C41.6596 18.5376 41.8627 18.7789 42.0751 18.9861C42.4361 19.3379 42.5534 19.9056 43.044 20.1662C42.9368 20.2874 42.904 20.3818 43.0807 20.4897C43.1081 20.5063 42.97 20.7407 43.1863 20.8361C43.5824 21.0102 43.8645 21.3184 44.0655 21.6987C44.2543 22.0573 44.5715 22.3188 44.7068 22.7404C44.789 22.997 44.8672 23.3717 45.0997 23.5249C45.3629 23.6985 45.4192 23.9703 45.5954 24.1756C45.7912 24.4037 46.0101 24.6184 46.0403 24.9531C46.0481 25.0386 46.166 25.1412 46.2577 25.1861C46.4377 25.274 46.4917 25.415 46.5266 25.595C46.5714 25.8248 46.5272 26.1394 46.9379 26.0968C46.9723 26.0935 47.0094 26.3553 47.0852 26.4665C47.4501 27.001 47.8708 27.4992 48.1244 28.1046C48.1448 28.1534 48.172 28.2138 48.2139 28.2371C48.6349 28.4738 48.7597 28.8983 48.9717 29.2904C49.0977 29.5233 49.1441 29.8884 49.5223 29.9981C49.7652 30.0688 49.5686 30.274 49.5136 30.417C50.0459 30.5336 49.8651 31.2478 50.3501 31.4183C50.4216 31.4435 50.447 31.6059 50.4889 31.7068C50.532 31.8088 50.5423 31.9747 50.6134 32.0056C50.8531 32.1095 50.8595 32.3139 50.9435 32.5107C51.0164 32.6828 51.3926 32.809 51.377 32.9187C51.3373 33.1971 51.5773 33.2553 51.6436 33.4304C51.723 33.6377 51.7996 33.846 51.8774 34.0537C51.8969 34.1057 51.8999 34.1804 51.9372 34.2069C52.4643 34.5815 52.5509 35.3105 53.1892 35.6282C52.987 35.83 52.8397 35.977 52.6831 36.1328C52.7318 36.177 52.7613 36.2255 52.7999 36.2347C53.0093 36.2846 53.2273 36.3069 53.4295 36.3757C53.5226 36.4072 53.6681 36.5535 53.6523 36.5955C53.4692 37.0747 53.8251 37.0489 54.1333 37.095L54.2907 37.8426C54.6096 37.8043 54.7981 37.9854 54.7048 38.219C54.5595 38.5824 54.7972 38.7542 55.0019 38.7913C55.3256 38.8503 55.4334 39.0075 55.4867 39.2875C55.5061 39.3889 55.5615 39.5351 55.6381 39.5662C56.0554 39.7338 56.1411 40.1299 56.3527 40.4549C56.4796 40.6497 56.4555 40.9489 56.76 41.0679C56.9759 41.1522 57.1308 41.3899 57.3153 41.5568C57.5213 41.7427 57.7176 41.9425 57.9406 42.1052C58.1368 42.2484 58.0738 42.3642 57.9979 42.5391C57.971 42.6011 58.1514 42.7331 58.1906 42.849C58.2539 43.0362 58.2788 43.2367 58.3245 43.4538C58.486 43.3494 58.6068 43.2712 58.7801 43.1593C58.7733 43.415 58.5737 43.6418 58.8834 43.7682C59.0157 43.8223 59.2364 43.898 59.0174 44.1135C59.0846 44.1354 59.1743 44.1958 59.2149 44.1722C59.4522 44.0344 59.531 43.7551 59.4001 43.513C59.3631 43.4448 59.2559 43.4182 59.2023 43.3548C59.1711 43.3188 59.183 43.2461 59.1737 43.1741C59.2604 43.1204 59.3517 43.0639 59.4627 42.9953C59.3915 42.9215 59.2513 42.8144 59.2659 42.7854C59.3972 42.5252 59.0797 42.2841 59.1463 42.1649C59.3209 41.8533 59.1686 41.6 59.1214 41.3321C59.068 41.0259 59.0455 40.7367 59.1001 40.4219C59.1395 40.1967 59.0831 39.9524 58.9935 39.701C58.8484 39.2935 58.6475 38.8408 58.8637 38.3769C58.5729 38.1301 58.759 37.7833 58.6953 37.4881C58.6074 37.0817 58.3766 36.6907 58.5358 36.2316C58.6636 35.8626 58.2598 35.47 58.5271 35.0808C58.3619 34.5901 58.4651 34.0645 58.3684 33.58C58.1846 32.6624 58.2073 31.7321 58.2041 30.8224C58.2004 29.781 58.2855 28.7258 58.486 27.6772C58.7581 26.256 59.1033 24.8627 59.6925 23.5537C60.0728 22.7099 60.1955 21.7029 61.0295 21.0955C61.0758 21.0618 61.0455 20.9365 61.0753 20.8634C61.3254 20.2446 61.7803 19.7786 62.3168 19.4261C62.5021 19.3045 62.6789 19.2087 62.8388 19.0394C63.0188 18.8488 63.2238 18.6648 63.5192 18.6003C63.7807 18.5432 64.0185 18.3828 64.2708 18.2769C64.5234 18.1713 64.8671 18.2755 65.0242 17.942C65.0394 17.91 65.1341 17.9195 65.1899 17.9025C65.8388 17.7076 66.4903 17.5203 67.1347 17.3102C67.3931 17.226 67.6256 17.0371 67.8867 16.9903C68.3237 16.9124 68.7771 16.9323 69.218 16.8699C69.6497 16.8088 70.0708 16.6504 70.5031 16.6186C70.9602 16.5849 71.4363 16.5948 71.8833 16.6871C72.3614 16.7856 72.8757 16.6779 73.3185 16.912C73.7373 17.1334 74.2511 17.131 74.6196 17.3702C74.9928 17.613 75.606 17.5986 75.7106 18.2076C75.7192 18.2575 75.8219 18.3112 75.8893 18.3278C76.5762 18.4954 76.8664 19.0987 77.2306 19.5947C77.4362 19.8741 77.5596 20.2455 77.6183 20.5926C77.6723 20.9114 77.996 20.6549 78.0528 20.8746C78.0954 21.0395 78.1123 21.2224 78.1975 21.3627C78.4406 21.764 78.6755 22.164 78.7811 22.6279C78.7988 22.7058 78.8308 22.794 78.8857 22.848C79.358 23.3143 79.4545 23.9637 79.7154 24.5322C79.829 24.7808 80.0664 25.0572 80.0217 25.2743C79.9575 25.5856 80.1194 25.7772 80.2135 25.9894C80.5114 26.6634 80.6236 27.4169 81.1147 28.0143C81.2638 28.1952 81.2033 28.5614 81.3622 28.7183C81.5401 28.8945 81.4391 29.1054 81.5776 29.2964C81.7736 29.5661 81.9988 29.8793 82.0106 30.2795C82.0207 30.6089 82.3433 30.8371 82.388 31.1973C82.4276 31.5146 82.6316 31.8081 82.739 32.1206C82.8468 32.4347 82.8011 32.8074 83.1118 33.043C83.1469 33.0697 83.1365 33.1538 83.1516 33.2099C83.4192 34.2009 83.6072 35.2228 83.9728 36.1765C84.6723 38.0002 84.8369 39.9394 85.3163 41.8084C85.3847 42.0758 85.3713 42.0789 85.7618 42.4088C85.702 42.0145 85.6532 41.6939 85.5916 41.2846C85.7276 41.3162 85.9143 41.3188 85.9277 41.3688C86.0348 41.762 86.1287 42.1612 86.1815 42.5645C86.1998 42.7029 86.0903 42.8579 86.0412 42.9997C85.7706 42.9469 86.0215 42.3587 85.5397 42.5912C85.7568 42.8535 85.7871 43.2091 86.144 43.4134C86.437 43.5804 86.1209 44.0457 86.3295 44.3333C86.3356 44.3418 86.2869 44.3799 86.2865 44.4046C86.2788 44.76 86.111 45.1128 86.12 45.434C86.1287 45.7381 86.4524 46.031 86.625 46.3357C86.6625 46.4015 86.6468 46.4969 86.6589 46.6119C86.5446 46.5793 86.4592 46.555 86.2982 46.509C86.6166 47.1935 87.0373 47.8391 86.5469 48.594C87.1189 49.0063 86.7593 49.6059 86.8142 50.128C86.8261 50.2454 86.5813 50.3896 86.4198 50.558C86.6187 50.5469 86.7806 50.538 86.9464 50.5287C86.8688 50.9709 86.8967 51.2278 87.0439 51.7167C87.0745 51.8187 87.0715 51.9382 87.0548 52.0456C87.0065 52.367 87.0392 52.6498 87.1315 52.995C87.1733 53.15 87.146 53.3235 87.1512 53.4884C87.156 53.6542 87.1899 53.8243 87.1618 53.9836C87.1199 54.2217 87.5711 54.3685 87.2961 54.6056C87.0562 54.8121 87.3199 55.0596 87.1794 55.2451C87.1361 55.302 87.0353 55.3154 86.7922 55.4242C87.0578 55.4378 87.1996 55.445 87.3556 55.4531C87.291 55.5397 87.3392 55.4748 87.388 55.4092C87.7063 55.7029 87.3908 56.0714 87.5049 56.3566C87.6517 56.7241 87.3356 56.9358 87.2643 57.2912C87.4269 57.3212 87.5486 57.3437 87.7072 57.3732C87.7777 57.8796 88.0039 58.3702 87.7575 58.9237C87.6227 59.2263 87.8077 59.6693 88.1917 60.2967C88.0023 60.2108 87.9303 60.1582 87.8533 60.1488C87.779 60.1399 87.6997 60.1759 87.583 60.2005C87.8273 60.4377 88.0364 60.6403 88.2459 60.8436C88.1169 61.1253 87.9823 61.3997 88.2456 61.6948C88.2966 61.7519 88.2689 61.9156 88.2295 62.0104C88.1403 62.2244 88.1692 62.3884 88.3491 62.5379C88.408 62.5871 88.4832 62.722 88.4692 62.7364C88.071 63.1357 88.7908 63.2911 88.6595 63.6277C88.5823 63.8245 88.5165 64.0254 88.4698 64.1581C88.6082 64.2662 88.7262 64.3488 88.8329 64.4433C89.0587 64.6428 88.6857 64.9205 88.959 65.1808C89.1332 65.3466 89.1334 65.7243 89.1589 66.0118C89.2488 67.0239 89.8256 67.899 89.9509 68.8987C90.3099 69.3417 90.3056 69.9032 90.4557 70.4154C90.5481 70.7311 90.6948 71.0314 90.8229 71.3363C90.941 71.6168 90.8911 71.9261 91.1297 72.2068C91.3293 72.4419 91.261 72.8861 91.4108 73.1884C91.5084 73.3844 91.7621 73.4968 91.5104 73.7408C91.7801 73.8455 91.7542 74.1022 91.8065 74.3179C91.9373 74.8595 92.1837 75.3498 92.4421 75.8392C92.5462 76.0365 92.6347 76.2875 92.6054 76.4968C92.5731 76.726 93.0327 76.7868 92.7512 77.0443C92.9315 77.3264 93.0673 77.6228 93.1139 77.9612C93.1563 78.2665 93.2932 78.5296 93.4473 78.8054C93.745 79.3383 93.9572 79.9217 94.1734 80.4957C94.2903 80.8062 94.3406 81.1233 94.5265 81.4284C94.7178 81.743 94.7664 82.1776 94.6082 82.5743C94.561 82.6926 94.5264 82.8162 94.5854 83.0014C94.6932 82.8692 94.8008 82.7375 94.9087 82.6057C95.2358 82.9303 94.9276 83.1701 94.7748 83.4699C94.969 83.6112 94.9827 83.9389 95.344 83.9483C95.4112 83.9499 95.4898 84.2252 95.5305 84.3825C95.6274 84.7558 95.596 85.0937 95.1233 85.282C95.516 85.3264 95.7068 85.4566 95.5932 85.8176C95.5809 85.8559 95.7741 86.0079 95.9176 86.0295C95.6824 86.4466 96.0694 86.9623 95.6564 87.4106C95.7832 87.3564 95.9104 87.3021 96.0868 87.2266C96.1369 87.661 96.3186 88.163 96.2099 88.5908C96.0882 89.0679 96.4458 89.54 96.0835 90.0085C95.9241 90.0561 95.7141 90.1183 95.5048 90.1808C95.5098 90.2089 95.5151 90.2372 95.5201 90.2657C95.6798 90.2619 95.8396 90.2584 96.0561 90.2534C96.1405 90.6265 96.0448 90.987 95.9703 91.3565C95.7569 92.4112 95.3745 93.3969 94.9135 94.3693C94.6791 94.8633 94.3846 95.3083 94.1192 95.7766C93.8677 96.2191 93.6559 96.6864 93.3842 97.1154C92.6921 98.2083 91.9675 99.2795 90.8957 100.053C90.4943 100.781 89.7755 101.171 89.1586 101.663C88.167 102.454 87.0787 103.106 85.9965 103.764C85.4199 104.114 84.8439 104.467 84.2495 104.786C83.6525 105.106 82.9838 105.287 82.4496 105.733C82.3699 105.8 82.2373 105.812 82.1258 105.829C81.6472 105.901 81.213 106.063 80.843 106.388C80.7645 106.457 80.6446 106.479 80.5435 106.522C80.2382 106.649 79.8844 106.567 79.6027 106.875C79.4256 107.069 78.9848 106.93 78.7849 107.245C78.763 107.28 78.6757 107.275 78.6185 107.284C77.4289 107.483 76.3401 108.058 75.1336 108.208C74.7543 108.256 74.3657 108.302 74.0235 108.584C73.8524 108.725 73.4949 108.837 73.2186 108.613C73.0789 108.889 72.7962 108.863 72.5574 108.916C71.8744 109.067 71.184 109.186 70.5068 109.359C70.1618 109.447 69.7544 109.361 69.4899 109.734C69.3516 109.93 69.0822 109.425 68.8997 109.772C68.4229 109.792 68.0304 110.09 67.5603 110.16C66.8696 110.263 66.1262 110.312 65.523 110.617C64.9083 110.928 64.2684 110.977 63.6424 111.144C62.9675 111.325 62.2725 111.426 61.5933 111.593C61.3602 111.65 61.1369 111.778 60.9321 111.908C60.7296 112.037 60.4466 111.692 60.3003 112.035C60.043 111.994 59.7695 111.874 59.5863 112.186C59.3191 111.956 59.1767 112.314 58.9583 112.319C58.7391 112.324 58.5485 112.424 58.2928 112.344C58.0482 112.268 57.7279 112.382 57.4549 112.461C56.4669 112.748 55.4393 112.744 54.4449 112.698C53.4775 112.654 52.4968 112.634 51.5312 112.485C51.3971 112.465 51.2447 112.502 51.111 112.544C50.1262 112.854 49.096 112.643 48.0986 112.81C48.0053 112.826 47.8977 112.727 47.7918 112.706C47.6068 112.67 47.4187 112.652 47.2313 112.628C47.0443 112.603 46.8548 112.551 46.67 112.565C46.5059 112.578 46.6944 112.128 46.3711 112.373C46.2603 112.457 46.0304 112.421 45.8654 112.388C45.6275 112.339 45.3983 112.246 45.1671 112.166C44.6782 111.998 44.1898 111.826 43.7022 111.654C43.4927 111.579 43.5635 111.463 43.6806 111.333Z" fill="#E28726"/>
</svg>
