<svg width="85" height="88" viewBox="0 0 85 88" fill="none" xmlns="http://www.w3.org/2000/svg">
<path fill-rule="evenodd" clip-rule="evenodd" d="M73.0531 25.0231C67.769 30.1318 66.0622 30.4416 60.0705 27.05C53.6706 23.428 47.4471 19.4979 41.1335 15.7242C40.1039 15.1094 38.9142 14.7298 37.9642 14.0216C36.2944 12.7788 34.7529 11.3677 33.1562 10.0263C35.3855 9.0343 37.5929 7.31369 39.8532 7.23827C42.5645 7.14844 45.6629 7.8884 48.0032 9.27075C56.3402 14.1978 64.4255 19.5493 73.0531 25.0231Z" fill="#E28726"/>
<path fill-rule="evenodd" clip-rule="evenodd" d="M37.3628 81.9871C31.7408 82.0434 25.9182 82.2668 20.1131 82.0308C18.8707 81.9793 17.6942 80.2593 16.4873 79.3094C17.4408 78.1736 18.2238 76.7986 19.3948 75.9684C20.566 75.1329 22.0844 74.5681 23.5206 74.3566C30.057 73.3963 36.6172 72.5823 43.1758 71.7687C44.3614 71.6209 45.6083 71.5545 46.7663 71.7711C47.5593 71.919 48.7923 72.5564 48.8568 73.0917C48.9624 73.9471 48.5226 75.3091 47.852 75.7462C44.6071 77.8598 41.2058 79.7355 37.3628 81.9871Z" fill="#E28726"/>
<path fill-rule="evenodd" clip-rule="evenodd" d="M49.9268 43.7079C47.8244 44.5715 45.6805 46.2408 43.6242 46.1431C37.9794 45.871 32.3503 44.9786 26.7638 44.0404C25.5743 43.8409 24.591 42.4124 23.5134 41.548C24.6291 40.518 25.7221 38.6413 26.865 38.6096C31.4473 38.4834 36.0781 38.6789 40.6283 39.253C43.7558 39.647 46.7789 40.8619 49.8497 41.7105C49.8754 42.3763 49.9011 43.0421 49.9268 43.7079Z" fill="#E28726"/>
</svg>
