<svg width="167" height="68" viewBox="0 0 167 68" fill="none" xmlns="http://www.w3.org/2000/svg">
<path d="M79.9708 18.5352C80.5255 17.6523 80.9982 16.9648 81.3888 16.4727L84.3654 12.7227H89.4747L84.8693 18.3711L89.7677 26H84.5294L81.6232 21.2422L80.1349 22.3789V26H75.5294V7.76562H80.1349V14.9375C80.1349 16.1641 80.049 17.3633 79.8771 18.5352H79.9708ZM95.9552 26H91.3732V12.7227H95.9552V26ZM91.256 9.41797C91.256 8.73047 91.4474 8.21875 91.8302 7.88281C92.213 7.54687 92.8302 7.37891 93.6818 7.37891C94.5333 7.37891 95.1544 7.55078 95.545 7.89453C95.9357 8.23828 96.131 8.74609 96.131 9.41797C96.131 10.7617 95.3146 11.4336 93.6818 11.4336C92.0646 11.4336 91.256 10.7617 91.256 9.41797ZM105.658 22.6133C106.276 22.6133 107.014 22.4609 107.873 22.1562V25.4961C107.256 25.7617 106.666 25.9492 106.104 26.0586C105.549 26.1758 104.897 26.2344 104.147 26.2344C102.608 26.2344 101.498 25.8594 100.818 25.1094C100.139 24.3516 99.799 23.1914 99.799 21.6289V16.1562H98.1935V14.293L100.233 12.8516L101.416 10.0625H104.416V12.7227H107.674V16.1562H104.416V21.3242C104.416 22.1836 104.83 22.6133 105.658 22.6133ZM118.854 26L117.975 24.2422H117.881C117.264 25.0078 116.635 25.5312 115.994 25.8125C115.354 26.0938 114.526 26.2344 113.51 26.2344C112.26 26.2344 111.276 25.8594 110.557 25.1094C109.838 24.3594 109.479 23.3047 109.479 21.9453C109.479 20.5312 109.971 19.4805 110.955 18.793C111.94 18.0977 113.365 17.707 115.233 17.6211L117.447 17.5508V17.3633C117.447 16.2695 116.908 15.7227 115.83 15.7227C114.861 15.7227 113.631 16.0508 112.139 16.707L110.815 13.6836C112.361 12.8867 114.315 12.4883 116.674 12.4883C118.377 12.4883 119.693 12.9102 120.623 13.7539C121.561 14.5977 122.029 15.7773 122.029 17.293V26H118.854ZM115.455 23C116.01 23 116.483 22.8242 116.873 22.4727C117.272 22.1211 117.471 21.6641 117.471 21.1016V20.0703L116.416 20.1172C114.908 20.1719 114.154 20.7266 114.154 21.7812C114.154 22.5938 114.588 23 115.455 23ZM133.115 26.2344C132.443 26.2344 131.842 26.125 131.311 25.9062C130.779 25.6797 130.252 25.2773 129.729 24.6992H129.518C129.658 25.6289 129.729 26.207 129.729 26.4336V31.7656H125.147V12.7227H128.873L129.518 14.4102H129.729C130.58 13.1289 131.756 12.4883 133.256 12.4883C134.725 12.4883 135.877 13.0977 136.713 14.3164C137.549 15.5352 137.967 17.207 137.967 19.332C137.967 21.4727 137.529 23.1602 136.654 24.3945C135.787 25.6211 134.608 26.2344 133.115 26.2344ZM131.58 16.0859C130.908 16.0859 130.436 16.3281 130.162 16.8125C129.897 17.2891 129.752 18 129.729 18.9453V19.3086C129.729 20.4492 129.881 21.2734 130.186 21.7812C130.49 22.2891 130.971 22.543 131.627 22.543C132.213 22.543 132.639 22.293 132.904 21.793C133.17 21.2852 133.303 20.4492 133.303 19.2852C133.303 18.1445 133.17 17.3281 132.904 16.8359C132.639 16.3359 132.197 16.0859 131.58 16.0859ZM83.9083 59V51.7578C83.9083 50.875 83.7794 50.2109 83.5216 49.7656C83.2716 49.3125 82.8654 49.0859 82.3029 49.0859C81.5294 49.0859 80.9708 49.3945 80.6271 50.0117C80.2833 50.6289 80.1115 51.6875 80.1115 53.1875V59H75.5294V45.7227H78.9865L79.5607 47.3633H79.8302C80.2208 46.7383 80.7599 46.2695 81.4474 45.957C82.1427 45.6445 82.9396 45.4883 83.838 45.4883C85.3068 45.4883 86.4474 45.9141 87.2599 46.7656C88.0802 47.6172 88.4904 48.8164 88.4904 50.3633V59H83.9083ZM104.287 52.332C104.287 54.5039 103.701 56.1992 102.529 57.418C101.365 58.6289 99.7325 59.2344 97.631 59.2344C95.6154 59.2344 94.0099 58.6133 92.8146 57.3711C91.6271 56.1289 91.0333 54.4492 91.0333 52.332C91.0333 50.168 91.6154 48.4883 92.7794 47.293C93.9513 46.0898 95.5919 45.4883 97.7013 45.4883C99.006 45.4883 100.158 45.7656 101.158 46.3203C102.158 46.875 102.928 47.6719 103.467 48.7109C104.014 49.7422 104.287 50.9492 104.287 52.332ZM95.6857 52.332C95.6857 53.4727 95.838 54.3438 96.1427 54.9453C96.4474 55.5391 96.9591 55.8359 97.6779 55.8359C98.3888 55.8359 98.8888 55.5391 99.1779 54.9453C99.4747 54.3438 99.6232 53.4727 99.6232 52.332C99.6232 51.1992 99.4747 50.3438 99.1779 49.7656C98.881 49.1875 98.3732 48.8984 97.6544 48.8984C96.9513 48.8984 96.4474 49.1875 96.1427 49.7656C95.838 50.3359 95.6857 51.1914 95.6857 52.332ZM111.354 51.5352C111.908 50.6523 112.381 49.9648 112.772 49.4727L115.748 45.7227H120.858L116.252 51.3711L121.151 59H115.912L113.006 54.2422L111.518 55.3789V59H106.912V40.7656H111.518V47.9375C111.518 49.1641 111.432 50.3633 111.26 51.5352H111.354ZM131.393 59L130.514 57.2422H130.42C129.803 58.0078 129.174 58.5312 128.533 58.8125C127.893 59.0938 127.065 59.2344 126.049 59.2344C124.799 59.2344 123.815 58.8594 123.096 58.1094C122.377 57.3594 122.018 56.3047 122.018 54.9453C122.018 53.5312 122.51 52.4805 123.494 51.793C124.479 51.0977 125.904 50.707 127.772 50.6211L129.986 50.5508V50.3633C129.986 49.2695 129.447 48.7227 128.369 48.7227C127.401 48.7227 126.17 49.0508 124.678 49.707L123.354 46.6836C124.901 45.8867 126.854 45.4883 129.213 45.4883C130.916 45.4883 132.233 45.9102 133.162 46.7539C134.1 47.5977 134.568 48.7773 134.568 50.293V59H131.393ZM127.994 56C128.549 56 129.022 55.8242 129.412 55.4727C129.811 55.1211 130.01 54.6641 130.01 54.1016V53.0703L128.955 53.1172C127.447 53.1719 126.693 53.7266 126.693 54.7812C126.693 55.5938 127.127 56 127.994 56ZM141.811 59.2344C140.865 59.2344 140.037 58.9648 139.326 58.4258C138.623 57.8867 138.076 57.0938 137.686 56.0469C137.303 55 137.111 53.7773 137.111 52.3789C137.111 50.2227 137.545 48.5352 138.412 47.3164C139.279 46.0977 140.471 45.4883 141.986 45.4883C142.729 45.4883 143.377 45.6367 143.932 45.9336C144.494 46.2305 145.006 46.7305 145.467 47.4336H145.561C145.412 46.3945 145.338 45.3555 145.338 44.3164V40.7656H149.955V59H146.498L145.514 57.3242H145.338C144.549 58.5977 143.373 59.2344 141.811 59.2344ZM143.686 55.6133C144.42 55.6133 144.936 55.3828 145.233 54.9219C145.537 54.4609 145.701 53.75 145.725 52.7891V52.4258C145.725 51.2539 145.557 50.4219 145.221 49.9297C144.885 49.4297 144.358 49.1797 143.639 49.1797C143.037 49.1797 142.568 49.4648 142.233 50.0352C141.904 50.5977 141.74 51.4023 141.74 52.4492C141.74 53.4805 141.908 54.2656 142.244 54.8047C142.58 55.3438 143.061 55.6133 143.686 55.6133ZM151.526 45.7227H156.354L158.604 53.3398C158.713 53.7383 158.787 54.2188 158.826 54.7812H158.92C158.983 54.2422 159.076 53.7695 159.201 53.3633L161.51 45.7227H166.186L160.936 59.8438C160.264 61.6406 159.436 62.9102 158.451 63.6523C157.475 64.3945 156.197 64.7656 154.619 64.7656C154.01 64.7656 153.385 64.6992 152.744 64.5664V60.9688C153.158 61.0625 153.631 61.1094 154.162 61.1094C154.568 61.1094 154.924 61.0312 155.229 60.875C155.533 60.7188 155.799 60.4961 156.026 60.207C156.252 59.9258 156.494 59.4609 156.752 58.8125L151.526 45.7227Z" fill="#333333"/>
<path d="M9.89319 9.7645L11.0743 10.9652L11.0743 10.9651L9.89319 9.7645ZM48.0021 47.2548L46.821 46.0542L48.0021 47.2548ZM28.9477 66L27.7665 67.2006C28.4219 67.8454 29.4734 67.8454 30.1288 67.2006L28.9477 66ZM9.89319 47.2548L11.0743 46.0542L11.0743 46.0542L9.89319 47.2548ZM2 28.5097H0.315789H2ZM28.9474 39.5172L27.9935 40.9053C28.5681 41.3002 29.3266 41.3002 29.9012 40.9053L28.9474 39.5172ZM15.4737 19.3884L14.5199 18.0003C14.0627 18.3145 13.7895 18.8336 13.7895 19.3884H15.4737ZM15.4737 39.5172H13.7895C13.7895 40.1426 14.136 40.7165 14.6894 41.0077C15.2429 41.2989 15.9121 41.2595 16.4275 40.9053L15.4737 39.5172ZM42.4211 19.3884H44.1053C44.1053 18.8336 43.8321 18.3145 43.3749 18.0003L42.4211 19.3884ZM42.4211 39.5172L41.4672 40.9053C41.9827 41.2595 42.6519 41.2989 43.2053 41.0077C43.7588 40.7165 44.1053 40.1426 44.1053 39.5172H42.4211ZM11.0743 10.9651C15.81 6.30633 22.2387 3.68421 28.9477 3.68421V0.315789C21.363 0.315789 14.0835 3.27962 8.71206 8.56388L11.0743 10.9651ZM28.9477 3.68421C35.6566 3.68421 42.0853 6.30633 46.821 10.9651L49.1833 8.56388C43.8118 3.27962 36.5323 0.315789 28.9477 0.315789V3.68421ZM46.821 10.9651C51.5557 15.623 54.2105 21.9345 54.2105 28.5097H57.5789C57.5789 21.0232 54.5556 13.8491 49.1833 8.56388L46.821 10.9651ZM54.2105 28.5097C54.2105 35.0848 51.5557 41.3963 46.821 46.0542L49.1833 48.4555C54.5556 43.1703 57.5789 35.9961 57.5789 28.5097H54.2105ZM46.821 46.0542L27.7665 64.7994L30.1288 67.2006L49.1833 48.4555L46.821 46.0542ZM30.1288 64.7994L11.0743 46.0542L8.71206 48.4555L27.7665 67.2006L30.1288 64.7994ZM11.0743 46.0542C8.72952 43.7477 6.87104 41.011 5.6036 38.001L2.49917 39.3082C3.94036 42.7308 6.052 45.8388 8.71212 48.4555L11.0743 46.0542ZM5.6036 38.001C4.33618 34.991 3.68421 31.766 3.68421 28.5097H0.315789C0.315789 32.2161 1.05795 35.8855 2.49917 39.3082L5.6036 38.001ZM3.68421 28.5097C3.68421 25.2534 4.33618 22.0283 5.6036 19.0184L2.49917 17.7111C1.05795 21.1338 0.315789 24.8033 0.315789 28.5097H3.68421ZM5.6036 19.0184C6.87104 16.0084 8.72952 13.2716 11.0743 10.9652L8.71212 8.56382C6.052 11.1805 3.94036 14.2885 2.49917 17.7111L5.6036 19.0184ZM27.2632 19.3884V39.5172H30.6316V19.3884H27.2632ZM29.9012 18.0003C27.8434 16.5863 25.1287 15.7641 22.2105 15.7641V19.1325C24.5202 19.1325 26.5542 19.7874 27.9935 20.7765L29.9012 18.0003ZM22.2105 15.7641C19.2924 15.7641 16.5777 16.5863 14.5199 18.0003L16.4275 20.7765C17.8669 19.7874 19.9009 19.1325 22.2105 19.1325V15.7641ZM13.7895 19.3884V39.5172H17.1579V19.3884H13.7895ZM16.4275 40.9053C17.8669 39.9163 19.9009 39.2613 22.2105 39.2613V35.8929C19.2924 35.8929 16.5777 36.7151 14.5199 38.1292L16.4275 40.9053ZM22.2105 39.2613C24.5202 39.2613 26.5542 39.9163 27.9935 40.9053L29.9012 38.1292C27.8434 36.7151 25.1287 35.8929 22.2105 35.8929V39.2613ZM29.9012 20.7765C31.3406 19.7874 33.3746 19.1325 35.6842 19.1325V15.7641C32.7661 15.7641 30.0513 16.5863 27.9935 18.0003L29.9012 20.7765ZM35.6842 19.1325C37.9952 19.1325 40.0278 19.7874 41.4672 20.7765L43.3749 18.0003C41.3172 16.5863 38.604 15.7641 35.6842 15.7641V19.1325ZM40.7368 19.3884V39.5172H44.1053V19.3884H40.7368ZM43.3749 38.1292C41.3172 36.7152 38.604 35.8929 35.6842 35.8929V39.2613C37.9953 39.2613 40.0278 39.9162 41.4672 40.9053L43.3749 38.1292ZM35.6842 35.8929C32.7661 35.8929 30.0513 36.7151 27.9935 38.1292L29.9012 40.9053C31.3406 39.9163 33.3746 39.2613 35.6842 39.2613V35.8929Z" fill="#F59024"/>
</svg>
