<svg width="111" height="223" viewBox="0 0 111 223" fill="none" xmlns="http://www.w3.org/2000/svg">
<path fill-rule="evenodd" clip-rule="evenodd" d="M61.8537 40.6466C71.1903 30.1117 81.6616 20.8323 92.4755 11.9679C93.3134 12.4403 92.3727 12.7889 92.5987 13.2286C93.0456 13.6007 93.9425 12.5238 94.3055 13.7928C94.6394 14.9587 94.0797 15.618 93.4463 16.2832C90.1125 19.7851 85.9565 22.3835 82.8498 26.1863C81.7868 27.4865 81.0102 29.2194 79.0575 29.931C77.8555 30.3686 77.6137 32.2249 76.403 33.1655C75.6451 33.7549 75.0568 34.7059 74.2104 35.3733C70.8384 38.0299 68.4015 41.4038 66.8872 45.4241C66.6146 46.1481 66.1243 46.7384 65.4286 46.5764C63.5316 46.1357 61.4554 46.4144 60.0534 44.2754C59.0359 42.7223 59.2014 41.6072 59.9658 40.2682C61.808 37.0426 64.4383 34.4654 67.0343 31.8816C70.0709 28.8595 73.344 26.0818 76.4825 23.1721C80.7037 19.2584 85.2085 15.7015 89.5761 11.9745C89.9916 11.6204 90.5187 10.7991 91.0687 11.3701C91.4828 11.7998 90.7721 12.3716 90.3745 12.7286C87.867 14.9795 85.2588 17.1042 82.6105 19.1938C80.0724 21.1964 77.7723 23.519 75.4852 25.8173C71.7889 29.533 67.8756 33.0328 64.3823 36.9496C63.3865 38.0663 62.3928 39.2015 61.8537 40.6466Z" fill="#7B7B7B"/>
<path fill-rule="evenodd" clip-rule="evenodd" d="M38.1829 90.5647C36.7951 91.1766 36.3519 89.5269 36.0687 89.1401C35.3022 88.0939 33.5543 88.4928 33.4217 87.4619C33.2213 85.9011 32.2949 84.3776 33.3162 82.6323C35.2908 79.2562 37.7229 76.2319 40.0617 73.1304C41.7573 70.8821 43.4114 68.5963 45.5187 66.6901C46.4584 65.8404 47.4647 65.1386 48.7306 64.9241C50.029 64.7035 51.0542 64.9377 51.9124 66.1893C52.5476 67.1153 53.4861 67.8631 54.0268 68.8965C54.5418 69.8791 54.8975 70.8583 53.7532 71.7028C52.9501 72.2949 52.7942 73.3115 52.2613 74.0894C50.1196 77.2147 48.6605 80.8075 45.8533 83.4757C43.7714 85.455 42.0191 87.7158 40.2258 89.9443C39.7123 90.5825 39.1686 91.3742 38.1829 90.5647Z" fill="#7B7B7B"/>
<path fill-rule="evenodd" clip-rule="evenodd" d="M117.099 84.0062C116.668 84.5397 116.391 84.8826 116.123 85.2139C116.252 85.5259 116.477 85.4206 116.688 85.4181C117.123 85.4123 117.47 84.6752 117.876 85.1157C118.368 85.6486 117.486 85.8927 117.413 86.3482C118.021 86.6726 118.408 85.9181 118.943 86.0375C119.424 87.5172 118.722 88.4165 117.656 89.3426C114.761 91.8589 112.099 94.6061 109.942 97.815C109.128 99.0267 107.245 99.2206 106.797 100.76C106.229 102.713 104.855 104.173 103.449 105.301C101.02 107.25 99.8748 110.002 98.1094 112.354C97.6127 113.016 97.7764 114.039 96.8807 114.451C96.5914 114.584 96.0997 114.932 96.0464 114.513C95.862 113.082 94.6631 113.427 93.8656 112.984C92.3857 112.162 92.4902 110.522 92.7018 109.112C93.0358 106.891 94.2169 104.972 95.607 103.284C100.928 96.8218 106.716 90.8048 113.28 85.5831C114.28 84.7875 115.272 83.7187 117.099 84.0062Z" fill="#7B7B7B"/>
<path fill-rule="evenodd" clip-rule="evenodd" d="M102.737 48.8356C102.062 49.8825 101.386 50.9863 100.657 52.0547C96.0368 58.828 90.7329 65.0428 85.1797 71.0588C83.0508 73.3648 80.7359 75.5051 78.9017 78.0832C78.3767 78.8219 77.6548 79.3225 76.9102 78.1875C76.7347 77.9197 76.4173 77.7349 76.1412 77.545C74.304 76.2828 73.928 74.5146 75.1304 72.5739C76.3631 70.5827 78.0781 69.0092 79.7571 67.4208C86.8606 60.7033 93.7109 53.7556 99.6156 45.9308C100.364 44.9391 100.494 44.9752 101.057 46.0338C101.118 46.1487 101.275 46.262 101.403 46.2841C102.911 46.5474 102.756 47.6632 102.737 48.8356Z" fill="#7B7B7B"/>
<path fill-rule="evenodd" clip-rule="evenodd" d="M30.6258 119.49C28.3872 122.449 25.5008 124.398 23.4098 127.06C21.2964 129.751 18.9383 132.259 17.2535 135.284C19.1329 133.001 21.0067 130.712 22.8932 128.434C25.0587 125.82 27.534 123.516 29.9868 121.178C31.2178 120.006 32.1591 120.334 32.9152 121.364C33.653 122.371 33.5079 123.693 32.3853 124.341C30.0981 125.662 28.4661 127.695 27.2006 129.782C24.9968 133.417 22.0006 136.531 20.2895 140.486C19.8952 141.398 18.9919 142.023 18.5674 143.042C18.0902 144.189 17.7554 145.191 18.0483 146.457C18.2175 147.193 18.8339 148.266 17.8924 148.783C17.1221 149.207 16.1092 149.398 15.2316 148.589C14.8965 148.28 14.2924 148.262 13.8098 148.114C10.9872 147.255 9.80329 144.948 10.9978 142.189C12.5995 138.489 15.012 135.274 17.4935 132.125C20.745 127.998 24.147 124.009 28.2229 120.65C28.8243 120.154 29.3721 119.575 30.6258 119.49Z" fill="#7B7B7B"/>
<path fill-rule="evenodd" clip-rule="evenodd" d="M98.5517 176.633C94.6963 175.591 93.9866 173.591 96.1489 170.742C97.8396 168.514 100.128 166.918 102.357 165.302C107.561 161.53 112.887 157.94 118.415 154.648C119.767 153.842 121.159 153.797 122.589 153.747C123.088 153.73 124.19 153.728 124.044 154.119C123.742 154.919 124.367 155.887 123.388 156.567C119.021 159.605 114.936 163.016 110.766 166.315C108.927 167.77 106.973 169.082 105.175 170.584C103.96 171.6 102.698 172.712 103.139 174.636C103.192 174.866 102.995 175.379 102.892 175.385C101.232 175.485 99.8766 176.861 98.5517 176.633Z" fill="#7B7B7B"/>
<path fill-rule="evenodd" clip-rule="evenodd" d="M80.2698 137.37C81.3082 136.81 82.4311 136.363 83.3626 135.662C84.4496 134.844 85.412 134.858 86.4318 135.615C87.0378 136.066 86.7031 136.738 86.5161 137.174C86.0346 138.296 85.1029 139.01 83.8635 139.124C83.5672 139.151 83.2159 138.838 83.0858 139.326C82.4534 141.71 80.0238 142.419 78.6143 144.087C78.1818 144.598 77.5194 145.016 76.997 145.519C75.4715 146.988 74.0978 148.66 71.6799 148.732C71.1167 148.748 70.1651 148.993 70.2346 149.861C70.4466 152.508 68.3215 153.668 66.8809 155.203C64.5136 157.724 61.7864 159.891 59.5145 162.515C59.2582 162.811 59.0265 163.267 58.5836 163.022C58.0303 162.715 58.957 162.4 58.6286 161.979C57.7843 162.175 56.8509 163.064 56.1567 161.534C55.909 160.988 55.1663 161.6 54.7747 162.004C54.4768 162.311 54.1647 162.592 53.7823 162.205C53.32 161.736 53.8827 161.527 54.1065 161.271C58.1852 156.602 62.7835 152.475 67.485 148.456C71.6254 144.916 75.7654 141.375 79.9049 137.836C80.0255 137.681 80.1475 137.526 80.2698 137.37Z" fill="#7B7B7B"/>
<path fill-rule="evenodd" clip-rule="evenodd" d="M114.218 126.013C116.801 123.677 119.397 121.348 122.151 119.199C119.367 120.316 115.492 123.601 114.218 126.013ZM116.643 131.26C116.03 131.273 118.008 129.686 116.134 130.484C116.084 130.505 115.989 130.533 115.974 130.514C115.166 129.448 114.256 129.252 113.062 129.97C112.749 130.158 111.418 127.518 111.546 126.877C111.74 125.911 112.221 125.075 112.862 124.355C116.48 120.289 120.846 117.275 125.886 115.24C128.355 114.242 130.465 114.988 132.307 116.717C133.296 117.646 133.091 118.389 131.882 119.059C130.61 119.763 129.372 120.539 128.179 121.37C126.802 122.329 125.563 123.455 124.097 124.326C122.172 125.47 121.064 127.526 119.474 129.07C118.594 129.921 117.784 130.808 116.643 131.26Z" fill="#7B7B7B"/>
<path fill-rule="evenodd" clip-rule="evenodd" d="M20.0604 185.312C19.7113 186.533 20.5866 187.406 20.4672 188.423C18.8994 188.225 18.166 187.149 18.2875 185.372C18.4198 183.441 19.4462 181.905 20.7307 180.682C23.4637 178.079 25.9306 175.213 29.3038 173.236C30.6234 172.463 31.797 170.955 33.1474 169.954C36.997 167.098 40.946 164.376 44.8659 161.615C45.6531 161.061 46.5209 160.65 47.4613 160.403C47.9426 160.277 48.3686 160.333 48.6735 160.749C49.001 161.197 48.8398 161.614 48.4959 161.965C47.9843 162.488 47.4991 163.054 46.9184 163.489C41.544 167.509 36.0829 171.417 30.7989 175.552C28.7404 177.163 26.9341 179.164 25.4683 181.366C24.7912 182.384 24.8665 183.721 24.6791 184.931C24.6274 185.261 24.958 185.817 24.3266 185.906C23.1137 186.076 22.0788 186.289 22.6567 187.965C22.7883 188.346 22.2471 188.383 21.9002 188.299C21.2801 188.148 20.5733 187.948 20.7058 187.163C20.828 186.443 20.5256 185.978 20.0604 185.312Z" fill="#7B7B7B"/>
<path fill-rule="evenodd" clip-rule="evenodd" d="M68.585 108.648C68.2989 108.303 68.1136 108.202 67.8586 108.536C66.9299 109.753 66.0795 111.053 65.005 112.127C64.3555 112.775 64.0267 114.384 62.4506 113.467C62.2 113.321 62.164 113.676 62.2348 113.902C62.4006 114.429 62.1343 114.712 61.7222 115.008C61.0194 115.512 60.6815 116.189 60.5818 117.111C60.399 118.815 59.0477 119.307 57.7319 118.235C57.574 118.106 57.3281 117.748 57.2816 117.856C56.1857 120.419 55.6884 116.499 54.7532 117.632C54.4096 117.146 54.3272 116.622 54.4316 116.031C54.6711 114.675 55.5131 113.7 56.4223 112.765C59.8669 109.222 64.0929 106.79 68.3804 104.469C69.413 103.91 70.6652 104.2 71.8168 104.172C72.4927 104.155 72.723 104.773 72.8273 105.333C72.9701 106.1 72.5931 106.075 72.0855 105.745C71.6848 106.945 70.6608 107.576 69.7579 108.326C69.3603 108.657 69.0414 109.1 68.585 108.648Z" fill="#7B7B7B"/>
<path fill-rule="evenodd" clip-rule="evenodd" d="M80.2699 137.37C80.1477 137.526 80.0256 137.681 79.905 137.836C77.2268 139.165 74.862 140.999 72.5517 142.836C69.3735 145.363 66.3712 148.127 63.4392 150.941C60.9577 153.323 58.0796 155.29 56.025 158.134C55.191 159.288 54.0646 160.243 52.4119 160.741C52.5965 158.716 54.1613 157.807 55.2374 156.633C58.0723 153.54 61.3191 150.879 64.5301 148.196C70.3232 143.356 75.9164 138.246 82.5295 134.478C82.9078 134.263 83.2558 133.92 83.9165 134.333C83.0273 135.772 81.3055 136.192 80.2699 137.37Z" fill="#7B7B7B"/>
</svg>
