<svg width="111" height="191" viewBox="0 0 111 191" fill="none" xmlns="http://www.w3.org/2000/svg">
<path fill-rule="evenodd" clip-rule="evenodd" d="M89.8066 152.537C88.3806 153.654 87.7113 155.272 87.4246 157.092C87.2667 158.095 86.3506 158.232 85.6614 158.409C85.0649 158.562 84.5145 158.582 84.0323 159.074C83.8329 159.278 83.2104 159.323 82.949 159.163C82.1126 158.653 81.2172 158.281 80.4452 157.601C77.7267 155.209 75.7342 152.25 73.869 149.232C71.9662 146.153 69.9744 143.106 68.5171 139.766C68.064 138.726 68.0456 138.735 69.1863 137.927C70.114 139.691 70.9787 141.482 71.98 143.193C72.7742 144.551 73.7348 145.81 74.7023 147.23C74.93 146.659 74.9246 146.292 74.5712 145.782C72.6469 143.002 70.82 140.16 69.3711 136.905C69.6026 136.754 69.8825 136.57 70.1607 136.389C70.2251 136.445 70.3685 136.569 70.6138 136.781V135.622C71.3015 135.485 71.9248 135.361 72.7359 135.2C73.3683 135.496 73.6689 136.615 74.71 136.754C74.6762 137.886 75.666 138.45 76.1635 139.277C76.7806 140.303 77.617 141.196 78.2089 141.954C78.8774 141.866 79.3772 141.772 79.8817 141.737C81.6526 141.613 81.6097 141.668 82.7129 142.641C83.9387 143.722 84.7774 145.235 86.3582 145.922C86.4602 145.965 86.5737 146.12 86.579 146.228C86.6281 147.366 87.2652 147.779 88.3331 148.055C89.2293 148.288 89.4838 149.232 89.526 150.161C89.5582 150.873 89.6893 151.581 89.8066 152.537Z" fill="#7B7B7B"/>
<path fill-rule="evenodd" clip-rule="evenodd" d="M67.223 99.5777C66.188 98.5428 65.3194 97.5293 64.3067 96.6891C61.4019 94.2788 60.0227 90.8688 58.2855 87.6949C57.5051 86.2697 57.7282 84.669 57.7619 83.1273C57.768 82.8597 58.1375 82.5998 58.3537 82.3192C58.6489 82.9034 58.9257 83.4508 59.3297 84.2496V81.3954C59.9376 81.0941 60.5379 80.9301 60.9473 80.5575C61.4556 80.0952 62.0298 80.1864 62.4959 80.3037C63.0387 80.4402 63.5017 80.8933 64.0475 81.2398C63.7279 82.7378 64.3174 83.992 65.048 85.2991C65.702 85.122 66.474 85.5866 67.1287 84.9151C67.2674 84.7725 67.7228 84.761 67.9191 84.879C69.5229 85.8442 71.4908 86.3563 72.3019 88.3373C72.4476 88.6946 72.6093 89.1561 72.9022 89.3148C73.3438 89.554 72.9474 90.3007 73.7056 90.3298C74.3297 90.3536 73.931 90.9899 74.043 91.3364C74.1817 91.7657 74.3711 92.1858 74.4462 92.6259C74.5152 93.0291 74.4608 93.4539 74.4608 93.8724C72.8554 95.2493 71.8235 97.0034 71.0324 98.9575C69.7483 99.1661 68.445 99.3784 67.223 99.5777Z" fill="#7B7B7B"/>
<path fill-rule="evenodd" clip-rule="evenodd" d="M15.0199 18.6504C14.1283 19.2561 13.2697 19.8632 12.375 20.4099C12.2884 20.4628 11.9771 20.1477 11.6413 19.9131C11.4359 20.2818 11.2963 20.6199 11.0786 20.8959C10.8226 21.2217 10.4937 21.4901 10.2031 21.7898C9.61435 22.3962 9.04704 23.0716 8.1769 22.1501C8.11021 22.0804 7.90781 22.1494 7.77059 22.1348C6.79312 22.029 5.86166 22.2728 4.87807 21.4862C4.08613 20.853 3.078 20.4152 2.3336 19.6379C1.63596 18.908 0.913788 18.2226 0.426974 17.2965C-0.31973 15.8744 -1.05723 14.4684 -0.791211 12.7995C-0.724514 12.3809 -0.437025 11.9968 -0.177135 11.4364C0.348777 11.8672 0.704497 12.1586 1.12001 12.4997C1.4604 11.3704 1.39064 10.058 2.4371 9.06287C2.84725 9.36953 3.2436 9.66545 3.73808 10.035V8.51013C5.11189 8.27554 6.35997 7.80329 7.73685 7.88609C8.52649 7.93362 9.20879 8.18354 9.70864 8.66269C10.3511 9.27753 11.1377 9.71758 11.662 10.5057C12.1358 11.2187 12.7836 11.8151 13.2812 12.5495C14.0976 13.757 14.3736 15.1684 14.9708 16.4532C15.256 17.0658 15.0199 17.9214 15.0199 18.6504Z" fill="#7B7B7B"/>
<path fill-rule="evenodd" clip-rule="evenodd" d="M99.0503 59.302C99.1055 58.9164 99.1607 58.53 99.222 58.1053C99.3738 58.2157 99.5087 58.2594 99.544 58.3445C100.08 59.6554 100.748 60.912 101.063 62.3141C101.26 63.1958 101.513 64.0398 100.659 64.7267C100.078 65.1944 100.668 66.5375 99.3608 66.4624C98.7444 67.4521 97.757 67.3532 96.8125 67.2858C96.5993 67.9482 96.4667 68.5937 96.1884 69.1694C95.8749 69.818 94.8729 70.0012 93.7988 69.6946C93.5535 69.6248 93.3166 69.3864 93.092 69.4063C91.3517 69.5581 91.3548 69.5711 90.6226 68.1988C90.257 67.5142 89.8154 66.8603 89.5317 66.1435C89.1867 65.2695 88.6501 64.7237 87.7677 64.3465C86.4575 63.7861 85.6065 62.6499 85.3804 61.2983C85.1757 60.0748 85.7484 58.9524 86.8408 58.0708C87.3821 58.7776 87.9218 59.4822 88.6785 60.4696C88.6785 59.4592 88.6677 58.7792 88.6815 58.0999C88.6953 57.4245 88.7689 57.5625 89.8376 57.0811C90.6012 56.7369 91.7074 57.1539 92.1467 56.0944C92.9011 56.0653 93.6547 56.0377 94.4091 56.0086C95.802 55.9534 97.0379 56.1052 97.6872 57.6538C97.9448 58.2671 98.5619 58.7301 99.0503 59.302Z" fill="#7B7B7B"/>
<path fill-rule="evenodd" clip-rule="evenodd" d="M46.8298 165.607C45.748 165.577 44.7246 165.285 44.2017 166.484C43.3186 165.32 43.2143 164.494 44.1136 163.57C44.7346 162.932 45.1439 162.135 45.9351 161.584C46.6274 161.101 46.8819 160.033 47.4783 159.353C47.9368 158.83 48.6252 158.508 49.2117 158.098C49.3949 158.277 49.5927 158.471 49.9047 158.777C49.5736 159.013 49.2485 159.244 48.9227 159.475C48.9587 159.559 48.9955 159.642 49.0316 159.726C49.5084 159.651 49.9845 159.575 50.5204 159.491C50.663 159.705 50.8285 160.254 51.1835 160.439C53.3155 161.549 54.6763 163.402 55.9719 165.304C56.3974 165.928 56.5438 166.735 56.8857 167.426C57.7298 169.133 57.9475 169.448 57.6907 171C57.5052 172.121 57.3005 173.317 56.4196 174.231C56.0716 174.592 55.7005 175.112 55.6821 175.574C55.6361 176.739 54.996 176.925 54.0546 176.865C53.7916 176.848 53.5133 176.882 53.2573 176.951C51.6151 177.393 51.4457 177.347 50.6269 176.088C49.4141 174.224 48.8345 172.093 48.1292 170.022C47.6309 168.558 47.2507 167.053 46.8298 165.607Z" fill="#7B7B7B"/>
<path fill-rule="evenodd" clip-rule="evenodd" d="M20.243 142.67C19.0815 142.01 17.9055 141.433 16.9587 140.479C15.1947 138.697 13.3011 137.028 11.6735 135.13C9.96239 133.134 8.15082 131.167 7.11816 128.827C7.22703 127.903 8.43065 128.885 8.45365 127.795C8.46054 127.483 9.22335 127.183 9.64653 126.888C10.6968 126.155 11.2833 126.032 12.0484 126.846C12.8035 127.65 13.6767 127.939 14.6649 128.148C16.1913 128.472 17.2447 129.644 18.551 130.365C19.9486 131.136 20.9445 132.378 22.0798 133.457C22.6679 134.015 23.3985 134.444 23.9037 135.062C24.412 135.683 24.8788 136.431 25.059 137.195C25.1679 137.66 24.8183 138.363 24.4626 138.777C24.0233 139.289 23.8155 140.027 23.0466 140.275C22.6019 140.417 22.6648 140.914 22.5782 141.323C22.4785 141.793 22.3474 142.365 21.5317 141.775C20.9613 141.363 20.4814 141.947 20.243 142.67Z" fill="#7B7B7B"/>
<path fill-rule="evenodd" clip-rule="evenodd" d="M104.415 130.577C102.032 129.596 101.008 127.771 99.9901 125.998C99.0954 124.439 98.2797 122.816 97.6142 121.147C96.9511 119.481 95.7943 117.901 96.3102 115.804C97.8174 116.854 97.6924 118.862 99.1399 120.204C98.8746 118.081 97.7729 116.44 97.2233 114.203C97.9838 114.62 98.2598 114.771 98.5971 114.956C98.6622 114.592 98.7305 114.21 98.7979 113.83C99.4281 113.71 100.05 113.592 100.784 113.453C100.979 113.764 101.234 114.224 101.538 114.65C102.722 116.308 102.728 116.301 104.878 117.065C105.118 117.151 105.343 117.29 105.56 117.428C107.226 118.48 108.741 119.666 109.657 121.494C109.996 122.17 110.458 123.412 110.437 124.132C110.432 124.301 110.573 124.498 110.696 124.641C111.009 125.004 110.868 125.313 110.544 125.496C109.605 126.026 109.198 127.068 108.364 127.692C108.008 127.958 107.945 128.312 107.88 128.752C107.791 129.35 106.618 130.125 106.073 129.999C105.734 129.921 105.516 129.3 105.055 129.758C104.814 129.998 104.63 130.297 104.415 130.577Z" fill="#7B7B7B"/>
<path fill-rule="evenodd" clip-rule="evenodd" d="M36.7086 81.853C36.3437 81.9136 35.9612 81.9764 35.4329 82.0638C35.6415 82.4548 35.7902 82.7323 35.9458 83.0236C34.953 84.0164 33.9196 85.0499 32.854 86.1163C32.6823 86.1163 32.4722 86.0848 32.2744 86.1209C29.9293 86.5548 28.3676 85.2239 27.0651 83.6193C26.0478 82.3659 25.1731 80.9852 24.4923 79.4787C24.0676 78.5381 23.6881 77.6718 23.9917 76.3938C24.7031 77.9577 25.3371 79.3499 25.9711 80.7429C26.0838 80.7061 26.1965 80.6701 26.31 80.6333C26.2586 80.368 26.2509 80.0836 26.1482 79.8398C25.7243 78.8324 25.2421 77.8481 24.8426 76.8323C24.6655 76.3823 24.2861 75.8219 25.2528 75.6126C25.551 75.5482 25.7258 74.905 25.9535 74.5239C26.1528 74.1897 26.346 73.8516 26.5039 73.5817C27.4814 73.4921 27.4906 74.3469 28.1001 74.6995C27.9582 74.1613 27.8164 73.6231 27.6294 72.9148C27.9421 72.6672 28.36 72.336 28.7778 72.004C29.0415 72.2662 29.3911 72.684 29.7154 71.9135C30.0673 71.081 30.587 70.7567 31.4296 71.3033C31.5062 71.3531 31.6649 71.3915 31.7155 71.3501C32.6915 70.5459 33.2664 71.347 33.718 71.9618C34.7959 73.4315 35.3034 75.1963 35.9489 76.8752C36.1007 77.2693 36.4311 78.1946 35.3195 78.2391C35.2566 78.2414 35.2083 78.5871 35.1539 78.7726C35.3854 78.8286 35.7411 79.008 35.8293 78.9191C36.4526 78.2943 36.7884 79.11 36.727 79.2533C36.3521 80.1342 37.2207 80.9852 36.7086 81.853Z" fill="#7B7B7B"/>
<path fill-rule="evenodd" clip-rule="evenodd" d="M29.1376 37.2384C29.383 37.4837 29.629 37.7298 30.0024 38.1024C30.0706 37.5113 30.1274 37.0237 30.1895 36.4917C31.0496 36.3115 31.9366 36.0846 32.8374 35.9512C33.3817 35.8707 33.9567 35.873 34.4995 35.9566C34.9135 36.021 34.5884 36.7922 35.3604 36.8597C35.8595 36.9034 36.2428 37.7513 36.5978 38.3416C36.886 38.8207 36.4544 39.858 37.5492 39.7959C37.5867 40.4744 37.6243 41.1536 37.6634 41.8321C37.6665 41.898 37.6818 41.9632 37.6918 42.0291L40.7982 45.1355C41.1309 45.1355 41.4835 45.0926 41.8201 45.1455C42.3391 45.229 42.898 45.7435 42.632 46.0624C42.0401 46.7715 43.1011 47.2614 42.6803 47.8402C41.0634 48.3247 40.5536 48.3784 39.2381 48.1484C39.5677 48.8606 39.8544 49.4816 40.2148 50.262C40.0047 50.4636 39.7279 50.9551 39.455 50.9535C37.7324 50.9405 35.9193 51.3775 34.3837 50.1547C33.9674 49.8227 33.4645 49.5628 33.141 49.1573C32.4027 48.2327 31.7419 47.2461 31.068 46.2709C30.7361 45.7902 30.4524 45.275 30.1335 44.7844C29.6398 44.0247 29.7862 42.9299 28.8808 42.3864C29.018 41.4649 28.4983 40.768 28.1663 39.973C27.7148 38.8928 27.9946 37.8594 29.1376 37.2384Z" fill="#7B7B7B"/>
<path fill-rule="evenodd" clip-rule="evenodd" d="M0.445602 83.3451C0.445602 83.1374 0.39577 82.8483 0.463234 82.5892C0.508466 82.416 0.805154 82.2979 0.83122 82.1315C0.859586 81.9498 0.64646 81.7413 0.644161 81.5435C0.642627 81.368 0.889484 81.1525 0.841186 81.023C0.753023 80.7846 0.555231 80.5638 0.352072 80.3982C0.217144 80.2878 -0.0074805 80.2862 -0.285003 80.2111C-0.154675 80.6642 -0.0496454 81.0291 0.0561503 81.3948C-0.682121 80.9448 -1.50242 80.586 -1.14134 79.5012C-0.836215 79.6315 -0.53646 79.7611 -0.164641 79.9206C-0.0450456 78.615 -1.25556 79.2942 -1.72168 78.6763C-1.03937 78.7568 -0.584758 78.2869 0.101382 78.3781C0.419536 78.4203 0.83352 77.7441 1.3211 77.2826C1.99804 77.8353 2.75701 78.454 3.64478 79.1785C3.73141 78.6487 3.7935 78.2715 3.86863 77.8123C4.87216 77.6184 5.90099 77.4198 6.94131 77.2189C7.47566 77.9012 7.89347 78.5237 8.40252 79.0596C8.8441 79.5227 9.45128 79.8316 9.87676 80.3062C11.0773 81.6463 11.6216 83.3382 12.1153 85.0118C12.2924 85.6105 12.4872 86.5581 11.3426 86.7183C11.3479 87.8177 10.1888 87.9817 9.66594 88.6786C9.01046 89.551 7.85131 89.7013 6.60016 89.1961C4.7265 88.4394 3.49528 86.9767 2.29856 85.5523C1.69982 84.8385 1.02748 84.1654 0.445602 83.3451Z" fill="#7B7B7B"/>
<path fill-rule="evenodd" clip-rule="evenodd" d="M34.9012 110.459C35.2385 110.574 35.5643 110.684 35.9377 110.811C36.0136 109.053 34.1959 108.56 33.9429 106.94C34.3109 107.103 34.6106 107.172 34.8276 107.344C35.1756 107.622 35.4685 107.967 35.9024 108.401C35.7544 107.519 35.6563 107.317 35.1534 106.714C36.2528 105.384 36.2528 105.384 37.5507 105.38C38.2644 106.184 38.8739 107.243 39.7885 107.801C40.7981 108.419 41.0956 109.472 41.84 110.227C42.5514 110.95 43.0237 111.934 43.4952 112.858C43.7543 113.364 43.9743 114.01 43.89 114.542C43.7827 115.215 43.4959 116.203 43.0206 116.394C42.2387 116.709 42.4134 117.262 42.1674 117.737C41.83 118.386 41.3685 119.018 40.5222 119.158C40.0277 119.239 39.4389 119.616 39.0763 119.453C38.1939 119.055 37.2823 118.548 36.6299 117.853C35.3987 116.54 34.2978 115.097 33.2445 113.634C32.98 113.267 33.1019 112.624 33.0237 111.899C33.3748 112.183 33.5143 112.295 33.8103 112.533C33.6569 111.467 34.5892 111.101 34.9012 110.459Z" fill="#7B7B7B"/>
<path fill-rule="evenodd" clip-rule="evenodd" d="M23.9093 187.139C23.3382 186.825 23.063 186.674 22.7962 186.527C22.3262 188.225 22.2097 188.313 20.8213 187.701C21.1878 188.555 21.4814 189.237 21.8011 189.979C21.4385 190.189 21.0674 190.405 20.6925 190.623C20.0148 189.946 19.3271 189.258 18.5758 188.506C18.1235 189.525 19.3685 189.996 19.2459 190.98C18.1289 191.135 17.4811 190.375 16.8379 189.676C16.4868 189.294 16.2966 188.762 15.9348 188.394C14.3218 186.756 12.8728 184.986 11.522 183.131C11.4009 182.964 11.233 182.831 11.0827 182.687C10.2686 181.91 9.4153 181.16 9.35474 179.894C10.1674 179.396 10.599 180.163 11.1517 180.638C11.7137 179.708 10.4135 179.583 10.4717 178.898C10.5216 178.072 12.0939 179.126 11.6945 177.775H13.9584C14.6062 178.231 15.2632 178.683 15.9072 179.151C16.5535 179.621 16.9805 180.296 17.7716 180.679C18.5398 181.052 19.0489 181.93 19.725 182.526C20.1658 182.914 20.4457 183.449 21.1502 183.624C21.66 183.749 21.9322 184.523 22.7065 184.423C22.9219 184.395 23.3106 184.784 23.4202 185.061C23.6295 185.589 23.6939 186.172 23.9093 187.139Z" fill="#7B7B7B"/>
<path fill-rule="evenodd" clip-rule="evenodd" d="M9.54365 47.3049C10.2628 47.3524 10.7595 46.9806 11.4173 47.4552C11.0831 47.5702 10.8408 47.6537 10.5763 47.745C10.8232 48.5829 11.0976 49.4155 11.2993 50.2649C11.3506 50.4826 11.2364 50.9127 11.0854 50.9763C10.2467 51.3305 9.9929 52.2329 9.33973 52.7273C9.05071 52.9466 8.61756 53.0179 8.23961 53.0608C8.05025 53.0815 7.82715 52.7956 7.6378 52.8155C7.40704 52.84 7.19545 53.0417 6.95242 53.1797C6.59364 51.9116 6.61204 51.8603 5.19912 51.3788C4.35352 51.0906 4.17796 50.2595 3.57846 49.7367C3.44429 50.0226 3.31473 50.2986 3.16984 50.6084C2.95901 50.3876 2.60406 50.1867 2.60483 49.9874C2.61556 47.4966 2.61326 47.4406 1.47634 45.948C0.83543 47.0742 2.06358 47.7258 2.13028 48.8275C1.82592 48.7799 1.37131 48.8152 1.31841 48.6856C0.784065 47.3869 -0.0301025 46.1603 0.804765 44.6025C1.06389 44.1188 1.11065 43.865 1.69253 43.8551C2.05132 43.8497 2.43693 43.6389 2.75662 43.4365C3.58536 42.9129 4.38342 42.3425 5.26889 41.7391C5.47128 42.0412 5.65834 42.321 5.61311 42.2528C6.31151 42.7396 7.03982 41.4286 7.15635 42.7956C7.19008 43.1835 8.05715 42.2581 8.05715 43.2739C8.05715 43.6665 8.77855 44.0597 9.14117 44.4224C9.01161 44.7582 8.88895 45.0786 8.76552 45.3991C8.86825 45.4704 8.97098 45.5417 9.07447 45.613C9.25617 45.2672 9.43786 44.9214 9.66708 44.4868C10.0404 45.1215 10.2574 45.4888 10.5418 45.971C10.2329 46.3834 9.88864 46.8442 9.54365 47.3049Z" fill="#7B7B7B"/>
<path fill-rule="evenodd" clip-rule="evenodd" d="M-6.88153 105.694C-6.36175 105.847 -5.81897 106.006 -5.152 106.201C-4.86911 105.527 -4.78555 104.88 -5.38199 104.278C-4.64909 103.612 -4.16151 104.616 -3.44317 104.508C-3.37647 104.145 -3.30517 103.763 -3.23618 103.389C-2.67346 102.787 -2.16595 103.898 -1.48594 103.374C-0.790605 102.837 -0.615045 103.995 -0.0239682 104.128C0.307985 104.202 0.618473 104.548 0.855363 104.84C1.6404 105.802 1.76306 107.165 2.82025 108.006C3.07324 108.207 2.93832 108.897 2.99505 109.511C1.82286 108.936 1.75156 110.796 0.622306 110.355C0.27502 110.917 0.60314 111.936 -0.667176 112.057C-0.801338 111.829 -1.0114 111.471 -1.31038 110.96C-1.56491 111.492 -1.68834 111.749 -1.81483 112.015C-2.52627 112.183 -2.85209 111.57 -3.08591 111.18C-3.86252 109.88 -4.86834 108.886 -6.16933 108.108C-6.9697 107.63 -7.40898 106.85 -6.88153 105.694Z" fill="#7B7B7B"/>
</svg>
