<svg width="630" height="400" viewBox="0 0 630 400" fill="none" xmlns="http://www.w3.org/2000/svg">
<path fill-rule="evenodd" clip-rule="evenodd" d="M10.6618 49.7199C9.23779 46.965 8.83237 41.0189 10.1863 38.8722C11.6017 36.6278 18.5464 34.0983 25.7221 31.4847C34.2614 28.3744 43.1278 25.145 43.3923 22.1351C43.8549 22.8889 51.3602 25.2787 67.2961 15.8805C74.6315 19.6354 88.3862 14.8536 93.9146 12.9317C95.5047 12.3789 96.4143 12.0627 96.2948 12.2542C96.9074 13.4505 115.496 10.546 118.152 10.1311C118.335 10.1025 118.442 10.0857 118.462 10.083C120.731 9.78673 123.006 9.39601 125.28 9.00534C129.642 8.25611 134.003 7.5071 138.314 7.42518C141.62 7.3647 144.942 6.94188 148.265 6.51893C153.528 5.84919 158.792 5.17914 163.999 5.94706C166.213 6.27136 168.508 5.78427 170.829 5.29145C172.764 4.88065 174.718 4.46586 176.66 4.51375C180.333 4.6064 184.065 4.0716 187.795 3.53709C192.058 2.92617 196.318 2.31563 200.486 2.64281C206.04 3.08202 211.661 2.60492 217.28 2.12804C225.241 1.45235 233.196 0.777098 240.951 2.70928C244.202 0.600466 247.367 0.850777 250.535 1.10143C252.94 1.29163 255.347 1.48203 257.796 0.642059C258.76 0.309129 259.741 0.555514 260.726 0.803155C261.304 0.948568 261.884 1.09441 262.464 1.12366C264.74 1.24103 267.024 1.2778 269.315 1.20134C273.301 1.07077 277.287 0.920286 281.274 0.769803C286.517 0.571883 291.761 0.373971 297.001 0.221399C298.718 0.173768 300.429 0.21813 302.141 0.262491C304.31 0.318708 306.478 0.374923 308.658 0.243913C316.565 -0.228779 324.405 0.078381 332.244 0.385551C335.322 0.506138 338.4 0.626725 341.482 0.700134C343.087 0.73883 344.702 0.644083 346.316 0.549439C350.418 0.308842 354.508 0.0689149 358.397 2.02363C362.946 -0.601138 367.317 -0.0638392 371.687 0.473175C373.706 0.72138 375.725 0.969523 377.761 0.905373C383.918 0.713845 390.054 0.84556 396.19 0.977273C397.813 1.01212 399.437 1.04696 401.06 1.07582C411.084 1.25257 421.103 1.4799 431.118 1.76058C437.475 1.94263 443.827 2.20803 450.173 2.53058C453.159 2.68231 456.138 2.90512 459.117 3.12797C463.813 3.47931 468.511 3.83074 473.241 3.90377C481.978 4.0421 490.655 4.91333 499.33 5.78442C502.324 6.08501 505.318 6.38559 508.313 6.65603C509.65 6.77644 510.987 6.89663 512.325 7.01681C525.567 8.20715 538.81 9.39755 552.029 10.8105C560.029 11.6656 567.985 12.9365 575.936 14.2064L575.938 14.2068L575.994 14.2157C577.542 14.463 579.09 14.7068 580.639 14.9507C588.589 16.2025 596.543 17.455 604.427 19.1824C606.297 19.593 608.158 20.0572 610.018 20.5213C614.913 21.7421 619.805 22.9624 624.857 23.2057C625.985 23.2616 626.952 25.0544 628.089 27.1615C628.667 28.2343 629.29 29.3891 630 30.4371C629.515 30.7425 629.092 31.0523 628.71 31.3316C627.988 31.8605 627.415 32.2798 626.855 32.3518C625.03 32.5893 623.209 32.6683 621.221 32.7546C620.4 32.7902 619.551 32.8271 618.661 32.8769C619.676 37.3654 622.068 37.9382 624.34 38.4824C626.544 39.0105 628.637 39.5116 629.25 43.5367C627.355 44.0126 625.31 44.5227 623.265 45.0328L623.263 45.0332C623.237 45.2521 623.21 45.4709 623.184 45.6895L623.103 46.352C623.048 46.8009 622.993 47.2498 622.939 47.6995C624.072 48.4966 625.203 49.292 626.575 50.2567L627.625 50.9943C625.994 55.1238 624.4 59.1585 622.205 64.7022C621.553 64.7371 620.774 64.9201 619.932 65.1178L619.926 65.1194L619.921 65.1204C619.73 65.1653 619.535 65.211 619.338 65.2558C620.762 68.0108 621.168 73.9568 619.814 76.1035C619.249 76.9982 617.806 77.9382 615.82 78.9108C618.798 79.5577 621.798 80.0632 624.857 80.2105C625.985 80.2663 626.952 82.0591 628.089 84.1662C628.667 85.2391 629.29 86.3939 630 87.4418C629.515 87.7472 629.092 88.0571 628.71 88.3363C627.988 88.8652 627.415 89.2845 626.855 89.3565C625.03 89.594 623.209 89.6731 621.221 89.7594L621.219 89.7594C620.399 89.795 619.55 89.8319 618.661 89.8816C619.676 94.3701 622.068 94.9429 624.34 95.4872C626.544 96.0152 628.637 96.5164 629.25 100.541C627.355 101.017 625.31 101.527 623.265 102.038L623.263 102.038C623.21 102.478 623.156 102.917 623.103 103.357L623.023 104.012C622.995 104.243 622.967 104.473 622.939 104.704C624.072 105.501 625.203 106.297 626.575 107.261L627.625 107.999C625.994 112.129 624.4 116.163 622.205 121.707C621.553 121.742 620.774 121.925 619.932 122.122C619.737 122.168 619.539 122.215 619.338 122.261C620.762 125.016 621.168 130.962 619.814 133.108C619.249 134.003 617.806 134.943 615.82 135.916C618.798 136.563 621.798 137.068 624.857 137.215C625.985 137.271 626.952 139.064 628.089 141.171L628.09 141.175C628.669 142.247 629.291 143.4 630 144.447C629.515 144.752 629.092 145.062 628.711 145.341C627.988 145.87 627.415 146.29 626.855 146.362C625.03 146.599 623.209 146.678 621.221 146.764C620.4 146.8 619.551 146.837 618.661 146.887C619.676 151.375 622.068 151.948 624.34 152.492C626.544 153.02 628.637 153.521 629.25 157.546C627.355 158.022 625.31 158.532 623.265 159.043L623.263 159.043C623.156 159.933 623.047 160.82 622.939 161.709C624.072 162.506 625.203 163.302 626.575 164.266L627.625 165.004C625.994 169.134 624.4 173.168 622.205 178.712C621.553 178.747 620.774 178.93 619.932 179.128C619.737 179.173 619.539 179.22 619.338 179.266C620.762 182.021 621.168 187.967 619.814 190.113C619.249 191.008 617.806 191.948 615.82 192.921C618.798 193.568 621.798 194.073 624.857 194.22C625.985 194.276 626.952 196.069 628.089 198.176L628.09 198.18C628.669 199.252 629.291 200.405 630 201.452C629.515 201.757 629.092 202.067 628.711 202.346C627.988 202.875 627.415 203.294 626.855 203.367C625.03 203.604 623.209 203.683 621.221 203.769C620.4 203.805 619.551 203.842 618.661 203.892C619.676 208.38 622.068 208.953 624.34 209.497C626.544 210.025 628.637 210.526 629.25 214.551C627.355 215.027 625.31 215.537 623.265 216.048L623.263 216.048C623.21 216.488 623.156 216.927 623.103 217.367L623.015 218.092C622.989 218.299 622.964 218.507 622.939 218.714L623.662 219.223C624.562 219.856 625.494 220.511 626.575 221.271L627.625 222.009C625.994 226.138 624.4 230.173 622.205 235.717C621.553 235.752 620.774 235.935 619.932 236.132L619.928 236.133C619.804 236.163 619.679 236.192 619.552 236.221C619.481 236.238 619.41 236.254 619.338 236.271C620.762 239.026 621.168 244.972 619.814 247.118C619.249 248.013 617.806 248.953 615.82 249.926C618.798 250.572 621.798 251.078 624.857 251.225C625.985 251.281 626.952 253.074 628.089 255.181C628.667 256.254 629.29 257.408 630 258.457C629.517 258.761 629.096 259.069 628.716 259.347L628.714 259.348L628.711 259.351C627.988 259.88 627.415 260.299 626.855 260.371C625.03 260.609 623.209 260.688 621.222 260.774C620.401 260.81 619.551 260.847 618.661 260.896C619.676 265.385 622.068 265.958 624.34 266.502C626.544 267.03 628.637 267.531 629.25 271.556C627.355 272.032 625.31 272.542 623.265 273.052L623.263 273.053C623.156 273.942 623.047 274.829 622.939 275.719C624.072 276.516 625.203 277.312 626.575 278.276L627.625 279.014C625.994 283.143 624.4 287.178 622.205 292.722C621.553 292.757 620.774 292.94 619.932 293.137C619.812 293.165 619.691 293.194 619.568 293.222C619.492 293.24 619.415 293.258 619.338 293.275C620.762 296.03 621.168 301.976 619.814 304.123C619.249 305.018 617.806 305.958 615.82 306.93C618.798 307.577 621.798 308.083 624.857 308.23C625.985 308.286 626.952 310.079 628.089 312.186C628.667 313.259 629.29 314.413 630 315.461C629.515 315.767 629.092 316.076 628.71 316.356C627.988 316.885 627.415 317.304 626.855 317.376C625.03 317.613 623.209 317.693 621.221 317.779C620.4 317.814 619.551 317.851 618.661 317.901C619.676 322.39 622.068 322.962 624.34 323.507C626.544 324.035 628.637 324.536 629.25 328.561C627.354 329.037 625.31 329.547 623.265 330.057L623.263 330.057C623.21 330.497 623.157 330.936 623.103 331.375C623.048 331.824 622.993 332.274 622.939 332.724C624.072 333.521 625.203 334.316 626.575 335.281L627.625 336.019C625.994 340.148 624.4 344.183 622.205 349.726C621.553 349.761 620.774 349.944 619.932 350.142C619.737 350.188 619.539 350.234 619.338 350.28C620.762 353.035 621.168 358.981 619.814 361.128C618.398 363.372 611.454 365.902 604.278 368.515C595.739 371.626 586.872 374.855 586.608 377.865C586.145 377.111 578.64 374.721 562.704 384.119C555.368 380.365 541.614 385.146 536.085 387.068C534.495 387.621 533.586 387.937 533.705 387.746C533.093 386.549 514.502 389.454 511.848 389.869L511.655 389.899C511.589 389.909 511.549 389.915 511.537 389.917C509.269 390.213 506.994 390.604 504.72 390.995C500.358 391.744 495.997 392.493 491.686 392.575C488.38 392.635 485.058 393.058 481.735 393.481C476.472 394.151 471.208 394.821 466.001 394.053C463.787 393.729 461.492 394.216 459.171 394.709C457.236 395.119 455.282 395.534 453.34 395.486C449.667 395.394 445.935 395.928 442.205 396.463C437.942 397.074 433.682 397.684 429.514 397.357C423.96 396.918 418.339 397.395 412.72 397.872C404.759 398.548 396.804 399.223 389.049 397.291C385.798 399.4 382.633 399.149 379.465 398.899C377.06 398.708 374.653 398.518 372.203 399.358C371.239 399.691 370.259 399.444 369.274 399.197C368.696 399.051 368.116 398.906 367.536 398.876C365.259 398.759 362.976 398.722 360.685 398.799C356.7 398.929 352.713 399.08 348.727 399.23L348.724 399.23C343.481 399.428 338.239 399.626 332.999 399.779C331.283 399.826 329.572 399.782 327.861 399.738H327.859C325.69 399.681 323.522 399.625 321.342 399.756C313.435 400.229 305.596 399.922 297.757 399.615L297.755 399.614C294.678 399.494 291.6 399.373 288.518 399.3C286.913 399.261 285.298 399.356 283.684 399.451C279.582 399.691 275.492 399.931 271.603 397.976C267.054 400.601 262.683 400.064 258.313 399.527C256.294 399.279 254.275 399.03 252.239 399.095C246.082 399.286 239.946 399.154 233.809 399.023C232.186 398.988 230.563 398.953 228.94 398.924C218.916 398.747 208.897 398.52 198.882 398.239C192.525 398.057 186.173 397.792 179.827 397.469C176.842 397.318 173.865 397.095 170.887 396.872L170.883 396.872C166.187 396.521 161.489 396.169 156.758 396.096C148.023 395.958 139.346 395.087 130.671 394.216L130.665 394.215C127.673 393.915 124.681 393.614 121.687 393.344C120.349 393.224 119.011 393.103 117.674 392.983C104.432 391.793 91.1892 390.602 77.9706 389.19C69.9719 388.335 62.0164 387.064 54.0667 385.794L54.062 385.793L54.0062 385.784C52.4581 385.537 50.9093 385.293 49.3604 385.049C41.4103 383.797 33.4564 382.545 25.5733 380.818C23.703 380.407 21.8419 379.943 19.9811 379.479C15.087 378.258 10.195 377.038 5.14283 376.794C4.01465 376.738 3.04777 374.946 1.91145 372.839C1.33283 371.766 0.710161 370.611 3.43308e-06 369.563C0.485176 369.258 0.908351 368.948 1.28978 368.668C2.01211 368.14 2.58472 367.72 3.1451 367.648C4.96949 367.411 6.79078 367.332 8.77807 367.245C9.59923 367.21 10.4493 367.173 11.3391 367.123C10.324 362.635 7.93242 362.062 5.66021 361.518C3.45549 360.99 1.36312 360.488 0.749496 356.463C2.64546 355.987 4.69023 355.477 6.73506 354.967L6.73683 354.967C6.79052 354.522 6.84469 354.078 6.89885 353.634C6.95302 353.19 7.00718 352.745 7.06088 352.301C5.92827 351.503 4.79689 350.708 3.4246 349.743L2.37533 349.006C4.00643 344.876 5.60018 340.841 7.79495 335.298C8.44657 335.263 9.22576 335.08 10.0676 334.882C10.2625 334.837 10.4609 334.79 10.6617 334.744C9.23779 331.989 8.83238 326.043 10.1863 323.896C10.7505 323.002 12.1935 322.062 14.1795 321.089C11.202 320.442 8.20176 319.937 5.14283 319.79C4.01464 319.734 3.04776 317.941 1.91142 315.834C1.33278 314.761 0.710199 313.606 0 312.558C0.48519 312.253 0.908378 311.943 1.28981 311.664C2.01213 311.135 2.58472 310.715 3.1451 310.643C4.96967 310.406 6.79113 310.327 8.77864 310.241C9.59964 310.205 10.4495 310.168 11.3391 310.118C10.324 305.63 7.93242 305.057 5.6602 304.513C3.45548 303.985 1.36312 303.484 0.749492 299.458C2.64546 298.983 4.69023 298.473 6.73506 297.962L6.73682 297.962C6.79052 297.517 6.84468 297.073 6.89885 296.629L6.89928 296.625C6.9533 296.182 7.00732 295.739 7.06088 295.296C5.92827 294.499 4.79689 293.703 3.4246 292.739L2.37533 292.001C4.00642 287.871 5.60017 283.837 7.79495 278.293C8.44657 278.258 9.22576 278.075 10.0676 277.878L10.0705 277.877C10.2645 277.831 10.4619 277.785 10.6617 277.739C9.23779 274.984 8.83237 269.038 10.1863 266.892C10.7505 265.997 12.1934 265.057 14.1794 264.084C11.2019 263.438 8.20172 262.932 5.14283 262.785C4.01464 262.729 3.04776 260.936 1.91142 258.829C1.33278 257.756 0.710199 256.601 0 255.553C0.48519 255.248 0.908378 254.938 1.28981 254.659C2.01213 254.13 2.58472 253.711 3.1451 253.639C4.96967 253.401 6.79113 253.322 8.77864 253.236C9.59964 253.2 10.4495 253.163 11.3391 253.114C10.324 248.625 7.93241 248.052 5.6602 247.508C3.45548 246.98 1.36312 246.479 0.749492 242.454C2.64546 241.978 4.69023 241.468 6.73506 240.958L6.73682 240.957C6.79052 240.512 6.84468 240.068 6.89885 239.624L6.89928 239.621C6.9533 239.178 7.00732 238.735 7.06088 238.291C5.92827 237.494 4.79689 236.698 3.4246 235.734L2.37533 234.996C4.00642 230.867 5.60017 226.832 7.79495 221.288C8.44658 221.253 9.22577 221.07 10.0676 220.873C10.2626 220.827 10.4609 220.78 10.6618 220.735C9.23779 217.98 8.83237 212.034 10.1863 209.887C10.7505 208.992 12.1936 208.052 14.1797 207.079C11.2021 206.433 8.20184 205.927 5.14283 205.78C4.01464 205.724 3.04776 203.931 1.91143 201.824C1.33279 200.751 0.710203 199.597 0 198.548C0.485083 198.243 0.908192 197.933 1.28956 197.654C2.01191 197.125 2.58471 196.706 3.1451 196.634C4.96948 196.396 6.79076 196.317 8.77803 196.231L8.78022 196.231L8.79145 196.23C9.60864 196.195 10.454 196.158 11.3391 196.109C10.324 191.62 7.93242 191.047 5.6602 190.503C3.45548 189.975 1.36312 189.474 0.749492 185.449C2.64546 184.973 4.69023 184.463 6.73506 183.953L6.73682 183.952C6.79052 183.507 6.84468 183.063 6.89885 182.619L6.89928 182.616C6.9533 182.173 7.00732 181.73 7.06088 181.286C5.92827 180.489 4.79689 179.693 3.4246 178.729L2.37533 177.991C4.00642 173.862 5.60017 169.827 7.79495 164.283C8.44658 164.248 9.22577 164.065 10.0676 163.868C10.2626 163.822 10.4609 163.775 10.6618 163.73C9.23779 160.975 8.83237 155.029 10.1863 152.882C10.7505 151.987 12.1936 151.047 14.1798 150.074C11.2021 149.428 8.20184 148.922 5.14283 148.775C4.01464 148.719 3.04776 146.926 1.91143 144.819C1.33279 143.746 0.710203 142.592 0 141.543C0.485171 141.238 0.908345 140.928 1.28977 140.649C2.01211 140.12 2.58471 139.701 3.1451 139.629C4.96934 139.391 6.79048 139.312 8.77759 139.226L8.78014 139.226L8.79135 139.225C9.60858 139.19 10.4539 139.153 11.3391 139.104C10.324 134.615 7.93242 134.042 5.66021 133.498C3.45548 132.97 1.36312 132.469 0.749492 128.444C2.64546 127.968 4.69023 127.458 6.73506 126.948L6.73682 126.947C6.79054 126.502 6.84473 126.058 6.89891 125.614C6.95306 125.17 7.0072 124.726 7.06088 124.281C5.92827 123.484 4.79689 122.688 3.4246 121.724L2.37533 120.986C4.00642 116.857 5.60017 112.822 7.79495 107.278C8.44657 107.243 9.22577 107.06 10.0676 106.863L10.0688 106.862L10.0706 106.862L10.0802 106.86C10.2711 106.815 10.4652 106.769 10.6618 106.725C9.23779 103.97 8.83237 98.0236 10.1863 95.8769C10.7505 94.9822 12.1934 94.0422 14.1794 93.0696C11.2019 92.4228 8.20172 91.9173 5.14283 91.77C4.01464 91.7142 3.04776 89.9213 1.91143 87.8142C1.3328 86.7413 0.710191 85.5868 0 84.5387C0.485176 84.2333 0.908354 83.9234 1.28978 83.6441C2.01211 83.1153 2.58471 82.696 3.1451 82.624C4.96968 82.3865 6.79116 82.3074 8.77869 82.2212C9.59985 82.1855 10.4493 82.1486 11.3391 82.0989C10.324 77.6104 7.93242 77.0376 5.6602 76.4934C3.45548 75.9653 1.36312 75.4641 0.749492 71.439C2.64546 70.9631 4.69023 70.453 6.73506 69.943L6.73682 69.9425C6.79053 69.4976 6.84471 69.0534 6.89888 68.6091C6.95304 68.1651 7.00719 67.721 7.06088 67.2763C5.92827 66.4791 4.79689 65.6837 3.4246 64.7191L2.37533 63.9814C4.00642 59.852 5.60017 55.8172 7.79495 50.2735C8.44657 50.2387 9.22575 50.0557 10.0676 49.858C10.2625 49.8122 10.4609 49.7656 10.6618 49.7199Z" fill="#3C5DD2"/>
<path d="M586.608 377.865C586.614 377.875 586.619 377.886 586.623 377.896C586.626 377.904 586.628 377.911 586.629 377.919C586.634 377.949 586.625 377.974 586.602 377.995C586.602 377.968 586.603 377.941 586.604 377.914C586.605 377.897 586.606 377.881 586.608 377.865Z" fill="#3C5DD2"/>
<path d="M43.3983 22.0053C43.362 22.0375 43.3599 22.0823 43.3923 22.1351C43.3961 22.0918 43.3981 22.0485 43.3983 22.0053Z" fill="#3C5DD2"/>
</svg>
